0
SECTION
2
HEADER
9
$INSUNITS
70
1
9
$ACADVER
1
AC1014
9
$HANDSEED
5
FFFF
0
ENDSEC
0
SECTION
2
TABLES
0
TABLE
2
VPORT
5
8
100
AcDbSymbolTable
0
ENDTAB
0
TABLE
2
LTYPE
5
5
100
AcDbSymbolTable
0
LTYPE
5
14
100
AcDbSymbolTableRecord
100
AcDbLinetypeTableRecord
2
BYBLOCK
70
0
0
LTYPE
5
15
100
AcDbSymbolTableRecord
100
AcDbLinetypeTableRecord
2
BYLAYER
70
0
0
LTYPE
5
16
100
AcDbSymbolTableRecord
100
AcDbLinetypeTableRecord
2
DASHED
70
0
3
Dashed __ __ __ __ __ __ __ __ __ __ __ __ __ _
72
65
73
2
40
0.75
49
0.5
74
0
49
-0.25
74
0
0
ENDTAB
0
TABLE
2
LAYER
5
2
100
AcDbSymbolTable
70
2
0
LAYER
5
50
100
AcDbSymbolTableRecord
100
AcDbLayerTableRecord
2
0
70
0
62
7
6
CONTINUOUS
0
ENDTAB
0
TABLE
2
STYLE
5
3
100
AcDbSymbolTable
70
1
0
STYLE
5
11
100
AcDbSymbolTableRecord
100
AcDbTextStyleTableRecord
2
STANDARD
70
0
0
ENDTAB
0
TABLE
2
VIEW
5
6
100
AcDbSymbolTable
70
0
0
ENDTAB
0
TABLE
2
UCS
5
7
100
AcDbSymbolTable
70
0
0
ENDTAB
0
TABLE
2
APPID
5
9
100
AcDbSymbolTable
70
2
0
APPID
5
12
100
AcDbSymbolTableRecord
100
AcDbRegAppTableRecord
2
ACAD
70
0
0
ENDTAB
0
TABLE
2
DIMSTYLE
5
A
100
AcDbSymbolTable
70
1
0
ENDTAB
0
TABLE
2
BLOCK_RECORD
5
1
100
AcDbSymbolTable
70
1
0
BLOCK_RECORD
5
1F
100
AcDbSymbolTableRecord
100
AcDbBlockTableRecord
2
*MODEL_SPACE
0
BLOCK_RECORD
5
1B
100
AcDbSymbolTableRecord
100
AcDbBlockTableRecord
2
*PAPER_SPACE
0
ENDTAB
0
ENDSEC
0
SECTION
2
BLOCKS
0
BLOCK
5
20
100
AcDbEntity
100
AcDbBlockBegin
2
*MODEL_SPACE
0
ENDBLK
5
21
100
AcDbEntity
100
AcDbBlockEnd
0
BLOCK
5
1C
100
AcDbEntity
100
AcDbBlockBegin
2
*PAPER_SPACE
0
ENDBLK
5
1D
100
AcDbEntity
100
AcDbBlockEnd
0
ENDSEC
0
SECTION
2
ENTITIES
0
LWPOLYLINE
5
100
100
AcDbEntity
8
0
100
AcDbPolyline
90
84
70
1
43
0.0
10
88.820425226900454
20
51.587885213923855
42
0.41421356237308632
10
89.570425226900454
20
50.837885213923855
10
90.705425226900445
20
50.837885213923862
10
90.705425226900445
20
50.567885213923851
10
90.570425226900454
20
50.567885213923851
10
90.570425226900454
20
49.087885213923869
10
92.452000030050058
20
49.087885213923869
10
92.452000030050058
20
49.22288521392386
10
92.722000030050069
20
49.22288521392386
10
92.722000030050069
20
47.837885213923862
42
0.41421356237309509
10
93.472000030050083
20
47.087885213923862
10
97.472000030050069
20
47.087885213923848
42
0.41421356237309509
10
98.222000030050069
20
47.837885213923862
10
98.222000030050054
20
49.22288521392386
10
98.492000030050065
20
49.22288521392386
10
98.492000030050065
20
49.087885213923869
10
100.64885042375087
20
49.087885213923869
10
100.64885042375087
20
49.22288521392386
10
100.91885042375085
20
49.22288521392386
10
100.91885042375085
20
47.837885213923862
42
0.41421356237309509
10
101.66885042375085
20
47.087885213923862
10
105.66885042375081
20
47.087885213923826
42
0.41421356237309509
10
106.41885042375083
20
47.83788521392384
10
106.41885042375085
20
49.222885213923853
10
106.68885042375084
20
49.222885213923853
10
106.68885042375084
20
49.087885213923855
10
108.57042522690043
20
49.087885213923855
10
108.57042522690043
20
50.567885213923837
10
108.43542522690042
20
50.567885213923837
10
108.43542522690042
20
50.837885213923855
10
109.57042522690045
20
50.837885213923855
42
0.41421356237309936
10
110.32042522690044
20
51.587885213923862
10
110.32042522690044
20
53.587885213923855
42
0.41421356237309936
10
109.57042522690045
20
54.337885213923855
10
108.43542522690042
20
54.337885213923848
10
108.43542522690042
20
54.607885213923858
10
108.57042522690043
20
54.607885213923858
10
108.57042522690043
20
57.567885213923851
10
108.43542522690042
20
57.567885213923851
10
108.43542522690042
20
57.837885213923862
10
109.57042522690045
20
57.837885213923862
42
0.41421356237309936
10
110.32042522690044
20
58.587885213923855
10
110.32042522690044
20
60.587885213923848
42
0.41421356237309936
10
109.57042522690045
20
61.337885213923848
10
108.43542522690048
20
61.337885213923855
10
108.43542522690048
20
61.607885213923844
10
108.57042522690047
20
61.607885213923844
10
108.57042522690043
20
63.087885213923855
10
106.68724263338773
20
63.087885213923855
10
106.68724263338773
20
62.952885213923857
10
106.4172426333877
20
62.952885213923857
10
106.4172426333877
20
64.337885213923855
42
0.41421356237309509
10
105.6672426333877
20
65.087885213923855
10
101.66724263338774
20
65.087885213923855
42
0.41421356237309509
10
100.91724263338773
20
64.337885213923855
10
100.91724263338776
20
62.952885213923835
10
100.64724263338772
20
62.952885213923835
10
100.64724263338772
20
63.087885213923833
10
98.490392239686955
20
63.087885213923833
10
98.490392239686955
20
62.952885213923835
10
98.220392239686973
20
62.952885213923835
10
98.220392239686973
20
64.337885213923855
42
0.41421356237309509
10
97.470392239686973
20
65.087885213923855
10
93.470392239686973
20
65.087885213923855
42
0.41421356237309509
10
92.720392239686973
20
64.337885213923855
10
92.720392239686959
20
62.952885213923835
10
92.450392239686963
20
62.952885213923835
10
92.450392239686963
20
63.087885213923833
10
90.570425226900468
20
63.087885213923833
10
90.570425226900454
20
61.607885213923844
10
90.705425226900445
20
61.607885213923844
10
90.705425226900445
20
61.337885213923855
10
89.570425226900454
20
61.337885213923855
42
0.41421356237308632
10
88.820425226900454
20
60.587885213923826
10
88.82042522690044
20
58.587885213923855
42
0.41421356237308632
10
89.570425226900454
20
57.837885213923855
10
90.705425226900445
20
57.837885213923819
10
90.705425226900445
20
57.56788521392383
10
90.570425226900454
20
57.56788521392383
10
90.570425226900454
20
54.607885213923858
10
90.705425226900445
20
54.607885213923858
10
90.705425226900445
20
54.337885213923826
10
89.570425226900454
20
54.337885213923826
42
0.41421356237308632
10
88.820425226900454
20
53.587885213923833
0
CIRCLE
5
101
100
AcDbEntity
8
0
100
AcDbCircle
10
102.9172426333877
20
61.087885213923862
30
0
40
0.13500000000000006
210
0
220
-0
230
1
0
CIRCLE
5
102
100
AcDbEntity
8
0
100
AcDbCircle
10
96.222000030050054
20
57.087885213923826
30
0
40
0.13500000000000148
210
0
220
-0
230
1
0
CIRCLE
5
103
100
AcDbEntity
8
0
100
AcDbCircle
10
102.9172426333877
20
55.083584913904005
30
0
40
0.13499999999999937
210
0
220
-0
230
1
0
CIRCLE
5
104
100
AcDbEntity
8
0
100
AcDbCircle
10
96.222000030050054
20
51.087885213923862
30
0
40
0.13500000000000006
210
0
220
-0
230
1
0
LWPOLYLINE
5
105
100
AcDbEntity
8
0
100
AcDbPolyline
90
6
70
1
43
0.0
10
91.627524515342145
20
61.420959151875806
10
92.237351288948503
20
62.030785925482171
42
-0.085094955484911347
10
92.570425226900468
20
62.087885213923869
10
92.676288239230928
20
62.087885213923848
10
91.57042522690044
20
60.982022201593381
10
91.570425226900241
20
61.087885213923862
42
-0.085094955484944557
0
LWPOLYLINE
5
106
100
AcDbEntity
8
0
100
AcDbPolyline
90
4
70
1
43
0.0
10
94.223607820413193
20
60.852072224567351
10
94.223607820413193
20
60.470234562726624
10
91.57042522690044
20
57.817051969213907
10
91.57042522690044
20
58.198889631054634
0
LWPOLYLINE
5
107
100
AcDbEntity
8
0
100
AcDbPolyline
90
4
70
1
43
0.0
10
94.223607820413193
20
57.687101992187877
10
94.223607820413193
20
57.30526433034715
10
91.57042522690044
20
54.652081736834383
10
91.57042522690044
20
55.033919398675117
0
LWPOLYLINE
5
108
100
AcDbEntity
8
0
100
AcDbPolyline
90
4
70
1
43
0.0
10
94.285784613623321
20
55.375551111113381
42
0.042569020405888502
10
94.388462254656105
20
55.096391090305431
10
91.57042522690044
20
52.278354062549781
10
91.57042522690044
20
52.660191724390508
0
LWPOLYLINE
5
109
100
AcDbEntity
8
0
100
AcDbPolyline
90
7
70
1
43
0.0
10
92.224738841868401
20
50.149535106978981
42
0.082130422277261667
10
92.545243715197472
20
50.088202318467332
10
94.294958578111348
20
51.837917181381201
42
-0.25301437132264781
10
95.471968062592723
20
53.014926665862568
10
96.546586113618233
20
54.089544716888035
42
-0.010888711396535919
10
96.470392239686944
20
54.087885213923826
10
96.163088948813268
20
54.087885213923826
0
LWPOLYLINE
5
110
100
AcDbEntity
8
0
100
AcDbPolyline
90
4
70
1
43
0.0
10
98.304364307857696
20
50.690462666304185
42
0.069785143973204206
10
98.449098514852381
20
50.453359211458121
10
100.91885042375085
20
52.923111120356573
10
100.91885042375085
20
53.3049487821973
0
LWPOLYLINE
5
111
100
AcDbEntity
8
0
100
AcDbPolyline
90
5
70
1
43
0.0
10
100.91885042375085
20
56.33788521392384
10
100.91885042375085
20
56.08808135273609
10
97.54843356156961
20
52.71766449055481
42
0.039430760982300458
10
97.318475576442253
20
52.869544167268245
10
100.92425577777686
20
56.475324368602827
42
0.019656936322369208
0
LWPOLYLINE
5
112
100
AcDbEntity
8
0
100
AcDbPolyline
90
4
70
1
43
0.0
10
98.220392239686944
20
59.310158737176998
10
100.66363022324815
20
61.75339672073823
42
-0.06913659731223297
10
100.81678660356138
20
61.524715439210745
10
98.220392239686944
20
58.928321075336271
0
LWPOLYLINE
5
113
100
AcDbEntity
8
0
100
AcDbPolyline
90
5
70
1
43
0.0
10
101.55884946403505
20
59.483645729145664
42
0.039250760815603053
10
101.78410792794081
20
59.327066531210676
10
98.218732736722728
20
55.761691339992552
42
0.010888711396536519
10
98.220392239686944
20
55.837885213923833
10
98.220392239686944
20
56.145188504797524
0
LWPOLYLINE
5
114
100
AcDbEntity
8
0
100
AcDbPolyline
90
8
70
1
43
0.0
10
106.87207354768181
20
62.041304476667058
42
0.076755460379932985
10
106.57042522690045
20
62.087885213923855
10
106.53681662309786
20
62.087885213923848
10
104.8658578724024
20
60.416926463228393
42
-0.27808706619583384
10
103.58820138408318
20
59.139269974909162
10
102.53141126907185
20
58.082479859897852
42
-0.01965693632236884
10
102.66885042375084
20
58.087885213923862
10
102.91865428493861
20
58.087885213923862
0
LWPOLYLINE
5
115
100
AcDbEntity
8
0
100
AcDbPolyline
90
4
70
1
43
0.0
10
107.57042522690044
20
59.956523585346943
10
107.57042522690044
20
59.574685923506216
10
104.84059257146781
20
56.844853268073543
42
0.042083633834262023
10
104.73205702720917
20
57.118155385655655
0
LWPOLYLINE
5
116
100
AcDbEntity
8
0
100
AcDbPolyline
90
4
70
1
43
0.0
10
107.57042522690044
20
56.791553352967448
10
107.57042522690044
20
56.409715691126721
10
104.91563484302456
20
53.754925307250872
10
104.91563484302456
20
54.136762969091599
0
LWPOLYLINE
5
117
100
AcDbEntity
8
0
100
AcDbPolyline
90
4
70
1
43
0.0
10
104.92170565392595
20
50.97786354761346
42
0.078214172622721012
10
105.00355417761108
20
50.677874409457857
10
107.57042522690044
20
53.244745458747218
10
107.57042522690044
20
53.626583120587952
0
LWPOLYLINE
5
118
100
AcDbEntity
8
0
100
AcDbPolyline
90
6
70
1
43
0.0
10
107.53914829032055
20
50.839740847882716
42
0.062773317484985311
10
107.57042522690045
20
51.087885213923848
10
107.57042522690044
20
51.252855446303343
10
106.40545499452094
20
50.08788521392384
10
106.57042522690045
20
50.087885213923855
42
0.062773317484958693
10
106.81856959294159
20
50.11916215050374
0
LWPOLYLINE
5
119
100
AcDbEntity
8
0
100
AcDbPolyline
90
4
70
1
43
0.0
10
107.57042522690044
20
54.417825678682838
10
107.57042522690044
20
54.03598801684209
10
104.91563484302456
20
51.381197632966241
10
104.91563484302456
20
51.763035294806997
0
LWPOLYLINE
5
120
100
AcDbEntity
8
0
100
AcDbPolyline
90
4
70
1
43
0.0
10
107.57042522690044
20
57.58279591106232
10
107.57042522690044
20
57.200958249221586
10
104.91563484302456
20
54.546167865345737
10
104.91563484302456
20
54.928005527186471
0
LWPOLYLINE
5
121
100
AcDbEntity
8
0
100
AcDbPolyline
90
4
70
1
43
0.0
10
107.57042522690044
20
60.747766143441815
10
107.57042522690044
20
60.365928481601081
10
104.57702328353909
20
57.372526538239697
42
0.038739332124525724
10
104.40052381960277
20
57.577864736144136
0
LWPOLYLINE
5
122
100
AcDbEntity
8
0
100
AcDbPolyline
90
6
70
1
43
0.0
10
104.93543083535796
20
61.27774198427884
10
105.72738586303269
20
62.069697011953579
42
-0.047790398777473764
10
105.91724263338773
20
62.087885213923855
10
106.12741172684372
20
62.087885213923848
10
104.91724263338772
20
60.877716120467838
10
104.9172426333877
20
61.087885213923862
42
-0.047790398777460406
0
LWPOLYLINE
5
123
100
AcDbEntity
8
0
100
AcDbPolyline
90
4
70
1
43
0.0
10
101.18752929482481
20
59.903568118030293
42
0.039035152533213317
10
101.3507317334083
20
59.684932894773034
10
98.220392239686944
20
56.554593401051662
10
98.220392239686944
20
56.936431062892396
0
LWPOLYLINE
5
124
100
AcDbEntity
8
0
100
AcDbPolyline
90
4
70
1
43
0.0
10
98.220392239686973
20
60.10140129527187
10
100.173487942614
20
62.054496998198829
42
-0.073083592681960186
10
100.44074068921022
20
61.939912082954436
10
98.220392239686944
20
59.719563633431136
0
LWPOLYLINE
5
125
100
AcDbEntity
8
0
100
AcDbPolyline
90
4
70
1
43
0.0
10
100.91885042375085
20
55.678676456481952
10
100.91885042375085
20
55.296838794641175
10
97.929101013495782
20
52.307089384386131
42
0.038912722366446821
10
97.761329676039068
20
52.521155708770181
0
LWPOLYLINE
5
126
100
AcDbEntity
8
0
100
AcDbPolyline
90
4
70
1
43
0.0
10
98.663514888729821
20
50.258370689081453
42
0.071876138227753711
10
98.921184674478411
20
50.134202812989301
10
100.91885042375085
20
52.131868562261701
10
100.91885042375085
20
52.513706224102435
0
LWPOLYLINE
5
127
100
AcDbEntity
8
0
100
AcDbPolyline
90
4
70
1
43
0.0
10
91.771034665077238
20
50.487073488282689
42
0.067811404285705632
10
91.960909825369356
20
50.295110986734073
10
95.766037751780971
20
54.100238913145702
42
-0.046044576615486055
10
95.451535039176036
20
54.167573862381488
0
LWPOLYLINE
5
128
100
AcDbEntity
8
0
100
AcDbPolyline
90
7
70
1
43
0.0
10
94.21458061843154
20
50.966296663606528
42
0.030481973211106964
10
94.222000030050054
20
51.087885213923862
10
94.222000030050069
20
51.337885213923876
42
-0.0025369962553151984
10
94.222090137790119
20
51.355643844805847
10
92.954331506908133
20
50.087885213923855
10
93.22200003005004
20
50.087885213923862
42
0.030481973211056699
10
93.343588580367381
20
50.095304625542369
0
LWPOLYLINE
5
129
100
AcDbEntity
8
0
100
AcDbPolyline
90
4
70
1
43
0.0
10
94.223607820413193
20
58.478344550282742
10
94.223607820413193
20
58.096506888442015
10
91.57042522690044
20
55.443324294929255
10
91.57042522690044
20
55.825161956770025
0
LWPOLYLINE
5
130
100
AcDbEntity
8
0
100
AcDbPolyline
90
4
70
1
43
0.0
10
91.57042522690044
20
58.990132189149499
10
94.117152511144326
20
61.53685947339337
42
-0.076224247963720987
10
94.210625787947222
20
61.248495088355568
10
91.57042522690044
20
58.608294527308772
0
LWPOLYLINE
5
131
100
AcDbEntity
8
0
100
AcDbPolyline
90
5
70
1
43
0.0
10
93.085693135485059
20
62.087885213923848
10
93.223607820413193
20
62.087885213923727
42
-0.05538944748455607
10
93.44313678103461
20
62.063491197632686
10
91.57042522690044
20
60.190779643498509
10
91.57042522690044
20
60.572617305339243
0
LWPOLYLINE
5
132
100
AcDbEntity
8
0
100
AcDbPolyline
90
4
70
1
43
0.0
10
94.223607820413193
20
60.060829666472486
10
94.223607820413193
20
59.678992004631752
10
91.57042522690044
20
57.025809411119035
10
91.57042522690044
20
57.407647072959762
0
LWPOLYLINE
5
133
100
AcDbEntity
8
0
100
AcDbPolyline
90
4
70
1
43
0.0
10
94.223607820413193
20
56.895859434093005
10
94.223607820413193
20
56.514021772252278
10
91.57042522690044
20
53.860839178739518
10
91.57042522690044
20
54.242676840580245
0
LWPOLYLINE
5
134
100
AcDbEntity
8
0
100
AcDbPolyline
90
4
70
1
43
0.0
10
94.53824504542429
20
54.836768984819471
42
0.038818771449414903
10
94.710244000130629
20
54.626930277685076
10
91.57042522690044
20
51.487111504454923
10
91.57042522690044
20
51.868949166295636
0
LWPOLYLINE
5
135
100
AcDbEntity
8
0
100
AcDbPolyline
90
2
70
1
43
0.0
10
100.09032619197473
20
50.102696876136598
10
100.90403876153809
20
50.916409445699983
42
-0.31651158651776068
0
LWPOLYLINE
5
136
100
AcDbEntity
8
0
100
AcDbPolyline
90
6
70
1
43
0.0
10
100.91885042375085
20
53.714353678451438
10
98.224319001942291
20
51.019822256642925
42
-0.017030550765256443
10
98.222000030050054
20
51.087885213923862
10
98.222000030050054
20
51.337885213923855
42
0.0086323086011641792
10
98.220956950984572
20
51.39829786752594
10
100.91885042375085
20
54.096191340292172
0
LWPOLYLINE
5
137
100
AcDbEntity
8
0
100
AcDbPolyline
90
2
70
1
43
0.0
10
98.97587319351004
20
62.057529703443954
10
98.250747750166852
20
61.332404260100766
42
-0.27588333648000513
0
LWPOLYLINE
5
138
100
AcDbEntity
8
0
100
AcDbPolyline
90
6
70
1
43
0.0
10
98.220392239686944
20
58.518916179082133
10
100.9099457080269
20
61.208469647422007
42
-0.030228850193438114
10
100.91724263338773
20
61.087885213923862
10
100.91724263338776
20
60.837885213923819
42
0.00056454924872743374
10
100.91724709540685
20
60.833933372961326
10
98.220392239686944
20
58.137078517241399
0
LWPOLYLINE
5
139
100
AcDbEntity
8
0
100
AcDbPolyline
90
7
70
1
43
0.0
10
102.06223837645234
20
59.195792083468078
42
0.044572556622132609
10
102.36284601340529
20
59.114562058580304
10
96.336169168748867
20
53.08788521392384
10
95.972000030050069
20
53.08788521392384
42
0.0025369962553152335
10
95.954241399168083
20
53.08779510618379
10
97.054793720295692
20
54.188347427311399
42
0.22620059571124954
10
98.1199300262994
20
55.253483733315093
0
LWPOLYLINE
5
140
100
AcDbEntity
8
0
100
AcDbPolyline
90
4
70
1
43
0.0
10
103.32113668312051
20
58.080962715851634
10
107.1458875047356
20
61.905713537466688
42
-0.067856555602065743
10
107.34382069493998
20
61.721809065830335
10
103.64341331970415
20
58.021401690594544
42
0.046922261953261352
0
LWPOLYLINE
5
141
100
AcDbEntity
8
0
100
AcDbPolyline
90
5
70
1
43
0.0
10
107.57042522690044
20
59.165281027252078
10
107.57042522690044
20
58.783443365411323
10
104.91563484302456
20
56.128652981535474
10
104.91563484302456
20
56.33788521392384
42
0.023585892309484668
10
104.90785538034932
20
56.502711180700921
0
LWPOLYLINE
5
142
100
AcDbEntity
8
0
100
AcDbPolyline
90
4
70
1
43
0.0
10
107.57042522690044
20
56.000310794872576
10
107.57042522690044
20
55.618473133031848
10
104.91563484302456
20
52.963682749156
10
104.91563484302456
20
53.345520410996734
0
LWPOLYLINE
5
143
100
AcDbEntity
8
0
100
AcDbPolyline
90
4
70
1
43
0.0
10
105.16371515764797
20
50.428630493240618
42
0.067979261438943436
10
105.36805445748998
20
50.251132131241881
10
107.57042522690044
20
52.453502900652353
10
107.57042522690044
20
52.83534056249308
0
LWPOLYLINE
5
144
100
AcDbEntity
8
0
100
AcDbPolyline
90
5
70
1
43
0.0
10
105.65010875986364
20
50.12378153736141
42
0.067288668776412222
10
105.91563484302459
20
50.087885213923855
10
105.99605009826679
20
50.08788521392384
10
107.57042522690044
20
51.662260342557481
10
107.57042522690044
20
52.044098004398215
0
LWPOLYLINE
5
145
100
AcDbEntity
8
0
100
AcDbPolyline
90
4
70
1
43
0.0
10
107.57042522690044
20
55.209068236777711
10
107.57042522690044
20
54.827230574936955
10
104.91563484302456
20
52.172440191061114
10
104.91563484302456
20
52.554277852901862
0
LWPOLYLINE
5
146
100
AcDbEntity
8
0
100
AcDbPolyline
90
4
70
1
43
0.0
10
107.57042522690044
20
58.374038469157185
10
107.57042522690044
20
57.992200807316458
10
104.91563484302456
20
55.337410423440609
10
104.91563484302456
20
55.719248085281336
0
LWPOLYLINE
5
147
100
AcDbEntity
8
0
100
AcDbPolyline
90
4
70
1
43
0.0
10
103.93909681461102
20
57.90768028924726
10
107.49654104411444
20
61.465124518750635
42
-0.080102383950460584
10
107.5681757601356
20
61.154921572931116
10
104.17834547471062
20
57.765091287506095
42
0.039851286576668365
0
LWPOLYLINE
5
148
100
AcDbEntity
8
0
100
AcDbPolyline
90
6
70
1
43
0.0
10
102.74557406500301
20
59.087885213923848
10
103.12741172684372
20
59.087885213923848
10
101.99065345399075
20
57.951126941070839
42
0.1961778148015674
10
101.05560869660383
20
57.016082183683942
10
97.034534293843166
20
52.99500778092326
42
0.04529993550782338
10
96.72690919129019
20
53.069220340211039
0
LWPOLYLINE
5
149
100
AcDbEntity
8
0
100
AcDbPolyline
90
4
70
1
43
0.0
10
100.95748231817996
20
60.464763699480308
42
0.043643663266763867
10
101.04820346249485
20
60.173647181954472
10
98.220392239686944
20
57.345835959146534
10
98.220392239686944
20
57.727673620987261
0
LWPOLYLINE
5
150
100
AcDbEntity
8
0
100
AcDbPolyline
90
4
70
1
43
0.0
10
99.415633600244021
20
62.087885213923848
10
99.797471262084798
20
62.087885213923848
10
98.220392239686973
20
60.510806191526008
10
98.220392239686973
20
60.892643853366735
0
LWPOLYLINE
5
151
100
AcDbEntity
8
0
100
AcDbPolyline
90
4
70
1
43
0.0
10
100.91885042375085
20
54.887433898387037
10
100.91885042375085
20
54.50559623654631
10
98.1709094237751
20
51.757655236570557
42
0.043063934380221422
10
98.073890846970613
20
52.042474321606868
0
LWPOLYLINE
5
152
100
AcDbEntity
8
0
100
AcDbPolyline
90
4
70
1
43
0.0
10
100.91885042375085
20
51.722463666007563
10
100.91885042375085
20
51.340626004166843
10
99.666109633507872
20
50.087885213923855
10
99.284271971667138
20
50.087885213923855
0
LWPOLYLINE
5
153
100
AcDbEntity
8
0
100
AcDbPolyline
90
4
70
1
43
0.0
10
91.57047650955171
20
51.077757890852048
42
0.082908742246946984
10
91.628006430428599
20
50.753450149888195
10
95.162016105174175
20
54.287459824633757
42
-0.039621454764842044
10
94.927610639995976
20
54.434892021296314
0
LWPOLYLINE
5
154
100
AcDbEntity
8
0
100
AcDbPolyline
90
5
70
1
43
0.0
10
94.223607820413193
20
55.837885213923848
42
0.015947490241840195
10
94.227166524296663
20
55.726337918040848
10
91.57042522690044
20
53.069596620644646
10
91.57042522690044
20
53.45143428248538
10
94.223607820413193
20
56.10461687599814
0
LWPOLYLINE
5
155
100
AcDbEntity
8
0
100
AcDbPolyline
90
4
70
1
43
0.0
10
94.223607820413193
20
59.269587108377614
10
94.223607820413193
20
58.887749446536887
10
91.57042522690044
20
56.23456685302412
10
91.57042522690044
20
56.616404514864897
0
LWPOLYLINE
5
156
100
AcDbEntity
8
0
100
AcDbPolyline
90
4
70
1
43
0.0
10
91.57042522690044
20
59.781374747244371
10
93.735804111535117
20
61.946753631878984
42
-0.0682372358275911
10
93.948078730614839
20
61.77719058911805
10
91.57042522690044
20
59.399537085403644
0
LWPOLYLINE
5
157
100
AcDbEntity
8
0
100
AcDbPolyline
90
8
70
1
43
0.0
10
91.878515160406693
20
72.81950767612345
42
0.41421356237310814
10
92.878515160406693
20
71.81950767612345
10
101.87851516040668
20
71.81950767612345
42
0.41421356237309509
10
102.87851516040666
20
72.81950767612345
10
102.87851516040671
20
81.486174342790079
42
0.41421356237311141
10
101.87851516040668
20
82.486174342790108
10
92.878515160406693
20
82.486174342790093
42
0.41421356237310814
10
91.878515160406678
20
81.486174342790108
0
LWPOLYLINE
5
158
100
AcDbEntity
8
0
100
AcDbPolyline
90
12
70
1
43
0.0
10
102.63638917615471
20
70.126174342790137
10
102.63638917615471
20
69.096174342790121
10
102.3585151604067
20
69.096174342790121
10
102.3585151604067
20
69.236174342790136
10
99.398515160406703
20
69.236174342790136
10
99.398515160406703
20
69.096174342790121
10
99.120641144658677
20
69.096174342790121
10
99.120641144658677
20
70.126174342790137
10
99.398515160406674
20
70.126174342790137
10
99.398515160406674
20
69.986174342790122
10
102.3585151604067
20
69.986174342790122
10
102.3585151604067
20
70.126174342790137
0
LWPOLYLINE
5
159
100
AcDbEntity
8
0
100
AcDbPolyline
90
12
70
1
43
0.0
10
95.636389176154708
20
70.126174342790137
10
95.636389176154708
20
69.096174342790121
10
95.358515160406682
20
69.096174342790121
10
95.358515160406682
20
69.236174342790136
10
92.398515160406717
20
69.236174342790136
10
92.398515160406717
20
69.096174342790121
10
92.120641144658649
20
69.096174342790121
10
92.120641144658649
20
70.126174342790137
10
92.398515160406689
20
70.126174342790137
10
92.398515160406689
20
69.986174342790122
10
95.358515160406682
20
69.986174342790122
10
95.358515160406682
20
70.126174342790137
0
LWPOLYLINE
5
160
100
AcDbEntity
8
0
100
AcDbPolyline
90
63
70
1
43
0.0
10
102.62851516040668
20
84.539323949089294
10
102.43166476670589
20
84.736174342790079
10
99.325365554107478
20
84.736174342790122
10
99.128515160406693
20
84.539323949089336
10
99.128515160406693
20
83.846174342790093
10
98.858515160406682
20
83.846174342790093
10
98.858515160406682
20
83.986174342790093
10
95.898515160406689
20
83.986174342790093
10
95.898515160406689
20
83.846174342790093
10
95.628515160406678
20
83.846174342790093
10
95.628515160406678
20
84.736174342790122
10
92.325365554107464
20
84.736174342790122
10
92.128515160406678
20
84.539323949089336
10
92.128515160406678
20
83.846174342790093
10
91.858515160406697
20
83.846174342790093
10
91.858515160406697
20
83.986174342790093
10
90.378515160406678
20
83.986174342790093
10
90.378515160406678
20
82.099924342790104
10
90.518515160406693
20
82.099924342790104
10
90.518515160406693
20
81.829924342790108
10
89.378515160406678
20
81.829924342790108
42
0.41421356237308632
10
88.628515160406678
20
81.079924342790093
10
88.628515160406678
20
78.267424342790122
42
0.41421356237308632
10
89.378515160406678
20
77.517424342790122
10
90.518515160406693
20
77.517424342790136
10
90.518515160406693
20
77.247424342790126
10
90.378515160406678
20
77.247424342790126
10
90.378515160406678
20
73.474924342790118
10
90.518515160406693
20
73.474924342790118
10
90.518515160406693
20
73.204924342790136
10
89.378515160406678
20
73.204924342790136
42
0.41421356237308632
10
88.628515160406678
20
72.454924342790122
10
88.628515160406678
20
69.642424342790136
42
0.41421356237308632
10
89.378515160406678
20
68.892424342790136
10
90.518515160406693
20
68.892424342790122
10
90.518515160406693
20
68.62242434279014
10
90.378515160406707
20
68.62242434279014
10
90.378515160406693
20
66.736174342790122
10
104.37851516040668
20
66.736174342790122
10
104.37851516040668
20
68.62242434279014
10
104.23851516040669
20
68.62242434279014
10
104.23851516040669
20
68.892424342790122
10
105.37851516040666
20
68.892424342790122
42
0.41421356237309936
10
106.12851516040665
20
69.642424342790122
10
106.12851516040665
20
72.454924342790122
42
0.41421356237309936
10
105.37851516040666
20
73.204924342790122
10
104.23851516040669
20
73.204924342790136
10
104.23851516040669
20
73.474924342790118
10
104.37851516040668
20
73.474924342790118
10
104.37851516040668
20
77.247424342790126
10
104.23851516040669
20
77.247424342790126
10
104.23851516040669
20
77.517424342790136
10
105.37851516040666
20
77.517424342790136
42
0.41421356237309936
10
106.12851516040665
20
78.267424342790122
10
106.12851516040665
20
81.079924342790122
42
0.41421356237311691
10
105.37851516040665
20
81.829924342790093
10
104.23851516040669
20
81.829924342790108
10
104.23851516040669
20
82.099924342790104
10
104.37851516040668
20
82.099924342790104
10
104.37851516040668
20
83.986174342790093
10
102.89851516040665
20
83.986174342790093
10
102.89851516040665
20
83.846174342790093
10
102.62851516040668
20
83.846174342790093
0
LWPOLYLINE
5
161
100
AcDbEntity
8
0
100
AcDbPolyline
90
16
70
1
43
0.0
10
101.06600895435864
20
73.699418809988558
10
101.06600895435864
20
76.839418809988544
42
0.41421356237309936
10
100.31600895435864
20
77.589418809988544
10
99.816008954358622
20
77.589418809988558
42
0.41421356237308632
10
99.066008954358622
20
76.839418809988544
10
99.066008954358637
20
73.699418809988558
10
98.796008954358655
20
73.699418809988558
10
98.796008954358655
20
73.839418809988544
10
96.566008954358622
20
73.839418809988544
10
96.566008954358622
20
73.339418809988558
42
0.41421356237308632
10
97.316008954358637
20
72.589418809988558
10
101.31600895435862
20
72.589418809988558
42
0.4142135623730907
10
102.06600895435859
20
73.339418809988558
10
102.06600895435864
20
73.839418809988544
10
101.33600895435865
20
73.839418809988544
10
101.33600895435865
20
73.699418809988558
0
CIRCLE
5
162
100
AcDbEntity
8
0
100
AcDbCircle
10
100.06600895435862
20
76.589418809988558
30
0
40
0.13500000000000006
210
-0
220
0
230
1
0
LWPOLYLINE
5
163
100
AcDbEntity
8
0
100
AcDbPolyline
90
28
70
1
43
0.0
10
92.833431106596876
20
77.757982841633265
10
93.030281500297662
20
77.561132447932479
10
93.718431106596867
20
77.561132447932479
10
93.718431106596867
20
77.291132447932497
10
93.583431106596862
20
77.291132447932497
10
93.583431106596862
20
74.811132447932479
10
94.063431106596866
20
74.811132447932479
10
94.063431106596866
20
74.946132447932499
10
94.333431106596862
20
74.946132447932499
10
94.333431106596862
20
74.258001893859088
10
94.530281500297647
20
74.061151500158303
10
95.636580712896091
20
74.061151500158303
10
95.833431106596876
20
74.258001893859088
10
95.833431106596876
20
74.946132447932499
10
96.103431106596872
20
74.946132447932499
10
96.103431106596872
20
74.811132447932479
10
96.583431106596876
20
74.811132447932479
10
96.583431106596876
20
75.311132447932494
42
0.29821662669859178
10
95.983431106596854
20
76.227647586923666
42
-0.29821662669860444
10
95.083431106596876
20
77.602420295410411
10
95.083431106596876
20
79.811132447932494
42
0.41421356237310814
10
94.083431106596862
20
80.811132447932494
10
93.583431106596862
20
80.811132447932451
10
93.583431106596862
20
79.83113244793249
10
93.718431106596867
20
79.83113244793249
10
93.718431106596867
20
79.561132447932494
10
93.030281500297662
20
79.561132447932494
10
92.833431106596876
20
79.364282054231708
0
LWPOLYLINE
5
164
100
AcDbEntity
8
0
100
AcDbPolyline
90
16
70
1
43
0.0
10
96.479494689780651
20
80.753163522528808
10
96.479494689780651
20
77.613163522528822
42
0.41421356237308632
10
97.229494689780665
20
76.863163522528822
10
97.729494689780651
20
76.863163522528808
42
0.41421356237308632
10
98.479494689780651
20
77.613163522528822
10
98.479494689780651
20
80.753163522528808
10
98.749494689780661
20
80.753163522528808
10
98.749494689780661
20
80.613163522528822
10
100.97949468978065
20
80.613163522528822
10
100.97949468978065
20
81.113163522528808
42
0.41421356237311691
10
100.22949468978067
20
81.863163522528808
10
96.229494689780651
20
81.863163522528794
42
0.41421356237308632
10
95.479494689780651
20
81.113163522528808
10
95.479494689780651
20
80.613163522528822
10
96.209494689780669
20
80.613163522528822
10
96.209494689780669
20
80.753163522528808
0
CIRCLE
5
165
100
AcDbEntity
8
0
100
AcDbCircle
10
97.479494689780665
20
77.863163522528822
30
0
40
0.13500000000000006
210
-0
220
0
230
1
0
ENDSEC
0
SECTION
2
OBJECTS
0
DICTIONARY
5
C
100
AcDbDictionary
3
ACAD_GROUP
350
D
3
ACAD_MLINESTYLE
350
17
0
DICTIONARY
5
D
100
AcDbDictionary
0
DICTIONARY
5
1A
330
C
100
AcDbDictionary
0
DICTIONARY
5
17
100
AcDbDictionary
0
ENDSEC
0
EOF
