0
SECTION
2
HEADER
9
$INSUNITS
70
1
9
$ACADVER
1
AC1014
9
$HANDSEED
5
FFFF
0
ENDSEC
0
SECTION
2
TABLES
0
TABLE
2
VPORT
5
8
100
AcDbSymbolTable
0
ENDTAB
0
TABLE
2
LTYPE
5
5
100
AcDbSymbolTable
0
LTYPE
5
14
100
AcDbSymbolTableRecord
100
AcDbLinetypeTableRecord
2
BYBLOCK
70
0
0
LTYPE
5
15
100
AcDbSymbolTableRecord
100
AcDbLinetypeTableRecord
2
BYLAYER
70
0
0
LTYPE
5
16
100
AcDbSymbolTableRecord
100
AcDbLinetypeTableRecord
2
DASHED
70
0
3
Dashed __ __ __ __ __ __ __ __ __ __ __ __ __ _
72
65
73
2
40
0.75
49
0.5
74
0
49
-0.25
74
0
0
ENDTAB
0
TABLE
2
LAYER
5
2
100
AcDbSymbolTable
70
2
0
LAYER
5
50
100
AcDbSymbolTableRecord
100
AcDbLayerTableRecord
2
0
70
0
62
7
6
CONTINUOUS
0
ENDTAB
0
TABLE
2
STYLE
5
3
100
AcDbSymbolTable
70
1
0
STYLE
5
11
100
AcDbSymbolTableRecord
100
AcDbTextStyleTableRecord
2
STANDARD
70
0
0
ENDTAB
0
TABLE
2
VIEW
5
6
100
AcDbSymbolTable
70
0
0
ENDTAB
0
TABLE
2
UCS
5
7
100
AcDbSymbolTable
70
0
0
ENDTAB
0
TABLE
2
APPID
5
9
100
AcDbSymbolTable
70
2
0
APPID
5
12
100
AcDbSymbolTableRecord
100
AcDbRegAppTableRecord
2
ACAD
70
0
0
ENDTAB
0
TABLE
2
DIMSTYLE
5
A
100
AcDbSymbolTable
70
1
0
ENDTAB
0
TABLE
2
BLOCK_RECORD
5
1
100
AcDbSymbolTable
70
1
0
BLOCK_RECORD
5
1F
100
AcDbSymbolTableRecord
100
AcDbBlockTableRecord
2
*MODEL_SPACE
0
BLOCK_RECORD
5
1B
100
AcDbSymbolTableRecord
100
AcDbBlockTableRecord
2
*PAPER_SPACE
0
ENDTAB
0
ENDSEC
0
SECTION
2
BLOCKS
0
BLOCK
5
20
100
AcDbEntity
100
AcDbBlockBegin
2
*MODEL_SPACE
0
ENDBLK
5
21
100
AcDbEntity
100
AcDbBlockEnd
0
BLOCK
5
1C
100
AcDbEntity
100
AcDbBlockBegin
2
*PAPER_SPACE
0
ENDBLK
5
1D
100
AcDbEntity
100
AcDbBlockEnd
0
ENDSEC
0
SECTION
2
ENTITIES
0
LWPOLYLINE
5
100
100
AcDbEntity
8
0
100
AcDbPolyline
90
26
70
1
43
0.0
10
40.11810202758533
20
49.873031792045488
10
40.314952421286115
20
49.676181398344703
10
41.003102027585321
20
49.676181398344703
10
41.003102027585321
20
49.4061813983447
10
40.86810202758533
20
49.4061813983447
10
40.86810202758533
20
46.926181398344703
10
57.11810202758533
20
46.926181398344688
42
0.41421356237309825
10
58.118102027585316
20
47.926181398344681
10
58.118102027585337
20
67.926181398344681
42
0.41421356237310814
10
57.11810202758533
20
68.926181398344681
10
40.86810202758533
20
68.926181398344696
10
40.86810202758533
20
66.446181398344692
10
41.003102027585335
20
66.446181398344692
10
41.003102027585335
20
66.176181398344681
10
40.314952421286115
20
66.176181398344681
10
40.11810202758533
20
65.979331004643896
10
40.11810202758533
20
60.873031792045488
10
40.314952421286115
20
60.676181398344696
10
41.003102027585335
20
60.676181398344696
10
41.003102027585335
20
60.406181398344685
10
40.86810202758533
20
60.406181398344685
10
40.86810202758533
20
55.446181398344699
10
41.003102027585335
20
55.446181398344699
10
41.003102027585335
20
55.176181398344696
10
40.314952421286115
20
55.176181398344696
10
40.11810202758533
20
54.97933100464391
0
LWPOLYLINE
5
101
100
AcDbEntity
8
0
100
AcDbPolyline
90
12
70
1
43
0.0
10
43.6102280118373
20
65.406181398344685
10
43.475228011837309
20
65.406181398344685
10
43.475228011837309
20
65.676181398344696
10
45.760976043333365
20
65.676181398344696
10
45.760976043333365
20
65.406181398344685
10
45.625976043333367
20
65.406181398344685
10
45.625976043333367
20
64.79118139834469
10
45.348102027585341
20
64.79118139834469
10
45.348102027585341
20
64.926181398344681
10
43.888102027585333
20
64.926181398344681
10
43.888102027585333
20
64.79118139834469
10
43.6102280118373
20
64.79118139834469
0
LWPOLYLINE
5
102
100
AcDbEntity
8
0
100
AcDbPolyline
90
12
70
1
43
0.0
10
51.919352027585333
20
49.061181398344679
10
51.919352027585333
20
48.926181398344688
10
55.69185202758532
20
48.926181398344688
10
55.69185202758532
20
49.061181398344679
10
55.969726043333367
20
49.061181398344679
10
55.969726043333367
20
48.040581398344685
10
55.69185202758532
20
48.040581398344685
10
55.69185202758532
20
48.176181398344688
10
51.919352027585333
20
48.176181398344688
10
51.919352027585333
20
48.041181398344683
10
51.641478011837293
20
48.041181398344683
10
51.641478011837293
20
49.061181398344679
0
LWPOLYLINE
5
103
100
AcDbEntity
8
0
100
AcDbPolyline
90
12
70
1
43
0.0
10
45.62597604333336
20
50.446181398344685
10
45.760976043333365
20
50.446181398344685
10
45.760976043333365
20
50.176181398344696
10
43.475228011837295
20
50.176181398344696
10
43.475228011837295
20
50.446181398344685
10
43.610228011837293
20
50.446181398344685
10
43.610228011837293
20
51.061181398344686
10
43.888102027585333
20
51.061181398344701
10
43.888102027585333
20
50.926181398344696
10
45.348102027585334
20
50.926181398344696
10
45.348102027585334
20
51.061181398344701
10
45.62597604333336
20
51.061181398344686
0
LWPOLYLINE
5
104
100
AcDbEntity
8
0
100
AcDbPolyline
90
12
70
1
43
0.0
10
47.344726043333367
20
67.811181398344686
10
47.344726043333367
20
66.791181398344676
10
47.066852027585334
20
66.791181398344676
10
47.066852027585334
20
66.926181398344696
10
43.294352027585333
20
66.926181398344696
10
43.294352027585333
20
66.791181398344676
10
43.0164780118373
20
66.791181398344676
10
43.0164780118373
20
67.811181398344686
10
43.294352027585333
20
67.811181398344686
10
43.294352027585333
20
67.676181398344681
10
47.066852027585334
20
67.676181398344681
10
47.066852027585334
20
67.811181398344686
0
LWPOLYLINE
5
105
100
AcDbEntity
8
0
100
AcDbPolyline
90
12
70
1
43
0.0
10
40.733102027585325
20
64.934055414092711
10
41.753102027585328
20
64.934055414092711
10
41.753102027585335
20
64.6561813983447
10
41.61810202758533
20
64.6561813983447
10
41.618102027585323
20
62.196181398344692
10
41.753102027585328
20
62.196181398344692
10
41.753102027585335
20
61.918307382596645
10
40.733102027585332
20
61.918307382596645
10
40.733102027585325
20
62.196181398344692
10
40.868102027585323
20
62.196181398344692
10
40.86810202758533
20
64.6561813983447
10
40.733102027585332
20
64.6561813983447
0
LWPOLYLINE
5
106
100
AcDbEntity
8
0
100
AcDbPolyline
90
12
70
1
43
0.0
10
47.066852027585327
20
48.041181398344683
10
47.066852027585327
20
48.176181398344688
10
43.294352027585333
20
48.176181398344703
10
43.294352027585333
20
48.04118139834469
10
43.016478011837293
20
48.041181398344683
10
43.016478011837293
20
49.061181398344679
10
43.294352027585333
20
49.061181398344694
10
43.294352027585333
20
48.926181398344703
10
47.066852027585327
20
48.926181398344688
10
47.066852027585327
20
49.061181398344679
10
47.34472604333336
20
49.061181398344679
10
47.34472604333336
20
48.041181398344683
0
LWPOLYLINE
5
107
100
AcDbEntity
8
0
100
AcDbPolyline
90
12
70
1
43
0.0
10
55.969726043333367
20
67.811781398344692
10
55.969726043333367
20
66.791181398344676
10
55.691852027585334
20
66.791181398344676
10
55.691852027585334
20
66.926181398344696
10
51.919352027585333
20
66.926181398344696
10
51.919352027585333
20
66.791181398344676
10
51.641478011837293
20
66.791181398344676
10
51.641478011837293
20
67.811181398344686
10
51.919352027585333
20
67.811181398344686
10
51.919352027585333
20
67.676181398344681
10
55.691852027585334
20
67.676181398344681
10
55.691852027585334
20
67.811781398344692
0
LWPOLYLINE
5
108
100
AcDbEntity
8
0
100
AcDbPolyline
90
24
70
1
43
0.0
10
54.733102027585332
20
59.546214385558187
10
54.86810202758533
20
59.546214385558187
10
54.86810202758533
20
64.506214385558195
10
54.733102027585332
20
64.506214385558195
10
54.733102027585332
20
64.784088401306221
10
55.753102027585335
20
64.784088401306221
10
55.753102027585335
20
64.506214385558195
10
55.61810202758533
20
64.506214385558195
10
55.61810202758533
20
62.282480610943125
10
56.098102027585327
20
62.282480610943125
10
56.098102027585327
20
62.41587282057997
10
56.36810202758533
20
62.41587282057997
10
56.36810202758533
20
60.130124789083915
10
56.098102027585327
20
60.130124789083915
10
56.098102027585327
20
60.265124789083913
10
55.61810202758533
20
60.265124789083913
10
55.61810202758533
20
59.546214385558187
10
55.753102027585335
20
59.546214385558187
10
55.753102027585335
20
59.268340369810154
10
55.61810202758533
20
59.268340369810154
10
55.61810202758533
20
59.266732579447044
10
54.86810202758533
20
59.266732579447044
10
54.86810202758533
20
59.268340369810154
10
54.733102027585332
20
59.268340369810154
0
LWPOLYLINE
5
109
100
AcDbEntity
8
0
100
AcDbPolyline
90
12
70
1
43
0.0
10
41.753102027585335
20
50.918307382596659
10
40.733102027585332
20
50.918307382596659
10
40.733102027585332
20
51.196181398344692
10
40.86810202758533
20
51.196181398344692
10
40.86810202758533
20
53.656181398344692
10
40.733102027585332
20
53.656181398344692
10
40.733102027585332
20
53.934055414092732
10
41.753102027585335
20
53.934055414092732
10
41.753102027585335
20
53.656181398344692
10
41.61810202758533
20
53.656181398344692
10
41.61810202758533
20
51.196181398344692
10
41.753102027585335
20
51.196181398344692
0
LWPOLYLINE
5
110
100
AcDbEntity
8
0
100
AcDbPolyline
90
24
70
1
43
0.0
10
54.86810202758533
20
56.584022426879216
10
54.86810202758533
20
56.587238007605436
10
55.61810202758533
20
56.587238007605436
10
55.61810202758533
20
56.584022426879216
10
55.753102027585335
20
56.584022426879216
10
55.753102027585335
20
56.306148411131176
10
55.61810202758533
20
56.306148411131176
10
55.61810202758533
20
55.588845797968567
10
56.098102027585327
20
55.588845797968567
10
56.098102027585327
20
55.722238007605455
10
56.36810202758533
20
55.722238007605455
10
56.36810202758533
20
53.436489976109392
10
56.098102027585327
20
53.436489976109392
10
56.098102027585327
20
53.571489976109397
10
55.61810202758533
20
53.571489976109376
10
55.61810202758533
20
51.346148411131189
10
55.753102027585335
20
51.346148411131189
10
55.753102027585335
20
51.068274395383156
10
54.733102027585332
20
51.068274395383156
10
54.733102027585332
20
51.346148411131189
10
54.86810202758533
20
51.346148411131189
10
54.86810202758533
20
56.306148411131176
10
54.733102027585332
20
56.306148411131176
10
54.733102027585332
20
56.584022426879216
0
LWPOLYLINE
5
111
100
AcDbEntity
8
0
100
AcDbPolyline
90
8
70
1
43
0.0
10
59.301301122804766
20
66.738221361964449
10
59.301301122804787
20
48.738221361964442
42
0.41421356237310081
10
61.301301122804759
20
46.738221361964399
10
83.801301122804759
20
46.738221361964406
42
0.41421356237309176
10
85.801301122804759
20
48.73822136196442
10
85.801301122804773
20
66.738221361964406
42
0.41421356237309337
10
83.801301122804773
20
68.738221361964392
10
61.301301122804766
20
68.738221361964392
42
0.41421356237308188
0
LWPOLYLINE
5
112
100
AcDbEntity
8
0
100
AcDbPolyline
90
12
70
1
43
0.0
10
71.793427107056743
20
66.603221361964415
10
71.793427107056743
20
67.623221361964411
10
72.071301122804769
20
67.623221361964411
10
72.071301122804769
20
67.488221361964392
10
75.031301122804763
20
67.48822136196442
10
75.031301122804763
20
67.623221361964411
10
75.309175138552803
20
67.623221361964411
10
75.309175138552803
20
66.603221361964415
10
75.031301122804763
20
66.603221361964415
10
75.031301122804763
20
66.73822136196442
10
72.071301122804769
20
66.738221361964406
10
72.071301122804769
20
66.603221361964415
0
LWPOLYLINE
5
113
100
AcDbEntity
8
0
100
AcDbPolyline
90
12
70
1
43
0.0
10
76.916301122804782
20
54.99609537771245
10
77.936301122804778
20
54.99609537771245
10
77.936301122804764
20
54.718221361964403
10
77.801301122804773
20
54.718221361964403
10
77.801301122804773
20
49.758221361964416
10
77.936301122804764
20
49.758221361964416
10
77.936301122804764
20
49.480347346216377
10
76.916301122804754
20
49.480347346216377
10
76.916301122804754
20
49.758221361964416
10
77.051301122804759
20
49.758221361964416
10
77.051301122804759
20
54.718221361964403
10
76.916301122804754
20
54.718221361964403
0
LWPOLYLINE
5
114
100
AcDbEntity
8
0
100
AcDbPolyline
90
12
70
1
43
0.0
10
64.793427107056729
20
66.603221361964415
10
64.793427107056729
20
67.623221361964411
10
65.071301122804769
20
67.623221361964411
10
65.071301122804769
20
67.488221361964392
10
68.031301122804763
20
67.488221361964392
10
68.031301122804763
20
67.623221361964411
10
68.309175138552803
20
67.623221361964411
10
68.309175138552803
20
66.603221361964415
10
68.031301122804763
20
66.603221361964415
10
68.031301122804763
20
66.738221361964406
10
65.071301122804769
20
66.738221361964406
10
65.071301122804769
20
66.603221361964415
0
LWPOLYLINE
5
115
100
AcDbEntity
8
0
100
AcDbPolyline
90
12
70
1
43
0.0
10
68.309175138552803
20
48.873221361964411
10
68.309175138552803
20
47.853221361964408
10
68.031301122804763
20
47.853221361964408
10
68.031301122804763
20
47.988221361964406
10
65.071301122804769
20
47.988221361964406
10
65.071301122804769
20
47.853221361964408
10
64.793427107056729
20
47.853221361964408
10
64.793427107056729
20
48.873221361964411
10
65.071301122804769
20
48.873221361964411
10
65.071301122804769
20
48.73822136196442
10
68.031301122804763
20
48.73822136196442
10
68.031301122804763
20
48.873221361964411
0
LWPOLYLINE
5
116
100
AcDbEntity
8
0
100
AcDbPolyline
90
12
70
1
43
0.0
10
62.571301122804776
20
55.131095377712448
10
62.571301122804776
20
54.996095377712429
10
63.186301122804771
20
54.996095377712429
10
63.186301122804771
20
54.718221361964403
10
63.05130112280478
20
54.718221361964403
10
63.051301122804766
20
49.758221361964395
10
63.186301122804764
20
49.758221361964395
10
63.186301122804771
20
49.480347346216377
10
62.571301122804776
20
49.480347346216377
10
62.571301122804776
20
49.345347346216386
10
62.301301122804787
20
49.345347346216386
10
62.301301122804787
20
55.131095377712448
0
LWPOLYLINE
5
117
100
AcDbEntity
8
0
100
AcDbPolyline
90
12
70
1
43
0.0
10
62.571301122804776
20
66.131095377712441
10
62.571301122804776
20
65.996095377712422
10
63.186301122804771
20
65.996095377712422
10
63.186301122804771
20
65.71822136196441
10
63.051301122804766
20
65.71822136196441
10
63.05130112280478
20
60.758221361964395
10
63.186301122804771
20
60.758221361964395
10
63.186301122804771
20
60.480347346216369
10
62.571301122804776
20
60.480347346216369
10
62.571301122804776
20
60.345347346216371
10
62.301301122804787
20
60.345347346216371
10
62.301301122804787
20
66.131095377712441
0
LWPOLYLINE
5
118
100
AcDbEntity
8
0
100
AcDbPolyline
90
12
70
1
43
0.0
10
83.296350459127552
20
50.873221361964426
10
83.296350459127552
20
49.85322136196443
10
83.018476443379527
20
49.853221361964408
10
83.018476443379527
20
49.988221361964399
10
80.558476443379519
20
49.988221361964399
10
80.558476443379519
20
49.853221361964408
10
80.280602427631479
20
49.85322136196443
10
80.280602427631479
20
50.873221361964426
10
80.558476443379519
20
50.873221361964404
10
80.558476443379519
20
50.738221361964413
10
83.018476443379527
20
50.738221361964413
10
83.018476443379527
20
50.873221361964404
0
LWPOLYLINE
5
119
100
AcDbEntity
8
0
100
AcDbPolyline
90
12
70
1
43
0.0
10
71.793427107056729
20
47.853221361964408
10
71.793427107056729
20
48.873221361964411
10
72.071301122804769
20
48.873221361964411
10
72.071301122804769
20
48.73822136196442
10
75.031301122804763
20
48.73822136196442
10
75.031301122804763
20
48.873221361964411
10
75.309175138552789
20
48.873221361964411
10
75.309175138552789
20
47.853221361964408
10
75.031301122804763
20
47.853221361964408
10
75.031301122804763
20
47.988221361964406
10
72.071301122804769
20
47.988221361964406
10
72.071301122804769
20
47.853221361964408
0
LWPOLYLINE
5
120
100
AcDbEntity
8
0
100
AcDbPolyline
90
12
70
1
43
0.0
10
77.936301122804778
20
60.488221361964428
10
76.916301122804782
20
60.488221361964428
10
76.916301122804782
20
60.758221361964416
10
77.051301122804773
20
60.758221361964416
10
77.051301122804759
20
65.718221361964424
10
76.916301122804768
20
65.718221361964424
10
76.916301122804782
20
65.99609537771245
10
77.936301122804778
20
65.99609537771245
10
77.936301122804778
20
65.718221361964424
10
77.801301122804773
20
65.718221361964424
10
77.801301122804773
20
60.758221361964416
10
77.936301122804778
20
60.758221361964416
0
LWPOLYLINE
5
121
100
AcDbEntity
8
0
100
AcDbPolyline
90
12
70
1
43
0.0
10
61.559175138552789
20
65.623221361964397
10
61.559175138552789
20
64.603221361964387
10
61.281301122804742
20
64.603221361964387
10
61.281301122804742
20
64.738221361964406
10
60.321301122804741
20
64.738221361964435
10
60.321301122804741
20
64.603221361964444
10
60.043427107056715
20
64.603221361964387
10
60.043427107056715
20
65.623221361964397
10
60.321301122804741
20
65.62322136196444
10
60.321301122804741
20
65.488221361964449
10
61.281301122804763
20
65.488221361964406
10
61.281301122804763
20
65.623221361964397
0
LWPOLYLINE
5
122
100
AcDbEntity
8
0
100
AcDbPolyline
90
12
70
1
43
0.0
10
60.043427107056743
20
49.853221361964408
10
60.043427107056743
20
50.873221361964404
10
60.32130112280479
20
50.873221361964426
10
60.32130112280479
20
50.738221361964435
10
61.281301122804763
20
50.738221361964413
10
61.281301122804763
20
50.873221361964404
10
61.559175138552803
20
50.873221361964404
10
61.559175138552803
20
49.853221361964408
10
61.281301122804763
20
49.853221361964408
10
61.281301122804763
20
49.988221361964399
10
60.32130112280479
20
49.98822136196442
10
60.32130112280479
20
49.85322136196443
0
LWPOLYLINE
5
123
100
AcDbEntity
8
0
100
AcDbPolyline
90
12
70
1
43
0.0
10
80.280602427631493
20
64.603221361964415
10
80.280602427631493
20
65.623221361964411
10
80.558476443379533
20
65.623221361964411
10
80.558476443379533
20
65.48822136196442
10
83.018476443379527
20
65.488221361964406
10
83.018476443379527
20
65.623221361964397
10
83.296350459127552
20
65.623221361964411
10
83.296350459127552
20
64.603221361964415
10
83.018476443379527
20
64.603221361964387
10
83.018476443379527
20
64.738221361964406
10
80.558476443379533
20
64.738221361964406
10
80.558476443379533
20
64.603221361964415
0
LWPOLYLINE
5
124
100
AcDbEntity
8
0
100
AcDbPolyline
90
26
70
1
43
0.0
10
40.235246447835941
20
73.107633325064583
10
40.432096841536726
20
72.910782931363784
10
41.120246447835946
20
72.910782931363784
10
41.120246447835946
20
72.640782931363788
10
40.985246447835941
20
72.640782931363788
10
40.985246447835941
20
70.160782931363798
10
57.235246447835941
20
70.160782931363812
42
0.41421356237310814
10
58.235246447835934
20
71.160782931363798
10
58.235246447835934
20
91.160782931363812
42
0.41421356237310814
10
57.235246447835941
20
92.160782931363798
10
40.985246447835941
20
92.160782931363798
10
40.985246447835941
20
89.680782931363794
10
41.120246447835932
20
89.680782931363794
10
41.120246447835932
20
89.410782931363812
10
40.432096841536726
20
89.410782931363812
10
40.235246447835941
20
89.213932537663027
10
40.235246447835941
20
84.107633325064583
10
40.432096841536726
20
83.910782931363798
10
41.120246447835946
20
83.910782931363798
10
41.120246447835946
20
83.640782931363816
10
40.985246447835941
20
83.640782931363816
10
40.985246447835941
20
78.68078293136378
10
41.120246447835932
20
78.68078293136378
10
41.120246447835932
20
78.410782931363784
10
40.432096841536726
20
78.410782931363784
10
40.235246447835941
20
78.213932537663027
0
LWPOLYLINE
5
125
100
AcDbEntity
8
0
100
AcDbPolyline
90
12
70
1
43
0.0
10
50.618120463583978
20
88.640782931363802
10
50.618120463583978
20
88.025782931363807
10
50.340246447835945
20
88.025782931363807
10
50.340246447835945
20
88.160782931363812
10
47.880246447835944
20
88.160782931363812
10
47.880246447835944
20
88.025782931363807
10
47.602372432087911
20
88.025782931363807
10
47.602372432087911
20
88.640782931363802
10
47.467372432087906
20
88.640782931363802
10
47.467372432087906
20
88.910782931363798
10
50.758120463583971
20
88.910782931363798
10
50.758120463583971
20
88.640782931363802
0
LWPOLYLINE
5
126
100
AcDbEntity
8
0
100
AcDbPolyline
90
12
70
1
43
0.0
10
50.618120463583971
20
73.680782931363808
10
50.753120463583976
20
73.680782931363808
10
50.753120463583976
20
73.410782931363812
10
47.467372432087906
20
73.410782931363812
10
47.467372432087906
20
73.680782931363808
10
47.602372432087904
20
73.680782931363808
10
47.602372432087904
20
74.295782931363817
10
47.88024644783593
20
74.295782931363817
10
47.88024644783593
20
74.160782931363812
10
50.340246447835931
20
74.160782931363812
10
50.340246447835931
20
74.295782931363817
10
50.618120463583971
20
74.295782931363817
0
LWPOLYLINE
5
127
100
AcDbEntity
8
0
100
AcDbPolyline
90
8
70
1
43
0.0
10
43.485246447835934
20
87.160782931363798
10
52.985246447835934
20
87.160782931363812
42
-0.41421356237309509
10
53.485246447835934
20
86.660782931363812
10
53.485246447835934
20
75.660782931363812
42
-0.41421356237309509
10
52.985246447835934
20
75.160782931363798
10
43.485246447835934
20
75.160782931363798
42
-0.41421356237309509
10
42.985246447835934
20
75.660782931363784
10
42.985246447835941
20
86.660782931363812
42
-0.41421356237309509
0
LWPOLYLINE
5
128
100
AcDbEntity
8
0
100
AcDbPolyline
90
24
70
1
43
0.0
10
54.850246447835929
20
79.818623959898346
10
54.985246447835941
20
79.818623959898346
10
54.985246447835941
20
79.821839540624566
10
55.735246447835941
20
79.821839540624566
10
55.735246447835941
20
79.818623959898346
10
55.870246447835932
20
79.818623959898346
10
55.870246447835932
20
79.540749944150306
10
55.735246447835941
20
79.540749944150306
10
55.735246447835941
20
78.82183954062458
10
56.215246447835938
20
78.82183954062458
10
56.215246447835938
20
78.956839540624586
10
56.485246447835941
20
78.956839540624586
10
56.485246447835941
20
76.671091509128516
10
56.215246447835938
20
76.671091509128516
10
56.215246447835938
20
76.806091509128493
10
55.735246447835941
20
76.806091509128493
10
55.735246447835941
20
74.580749944150313
10
55.870246447835932
20
74.580749944150313
10
55.870246447835932
20
74.310749944150302
10
54.850246447835929
20
74.310749944150302
10
54.850246447835929
20
74.580749944150313
10
54.985246447835941
20
74.580749944150313
10
54.985246447835941
20
79.540749944150306
10
54.850246447835929
20
79.540749944150306
0
LWPOLYLINE
5
129
100
AcDbEntity
8
0
100
AcDbPolyline
90
12
70
1
43
0.0
10
40.850246447835943
20
88.168656947111842
10
41.870246447835946
20
88.168656947111842
10
41.870246447835946
20
87.890782931363788
10
41.735246447835941
20
87.890782931363788
10
41.735246447835941
20
85.430782931363794
10
41.870246447835946
20
85.430782931363794
10
41.870246447835946
20
85.152908915615768
10
40.850246447835943
20
85.152908915615768
10
40.850246447835943
20
85.430782931363794
10
40.985246447835941
20
85.430782931363794
10
40.985246447835941
20
87.890782931363788
10
40.850246447835943
20
87.890782931363788
0
LWPOLYLINE
5
130
100
AcDbEntity
8
0
100
AcDbPolyline
90
12
70
1
43
0.0
10
43.133622432087911
20
90.025782931363807
10
43.133622432087911
20
91.045782931363803
10
43.411496447835944
20
91.045782931363803
10
43.411496447835944
20
90.910782931363812
10
47.183996447835931
20
90.910782931363812
10
47.183996447835931
20
91.045782931363803
10
47.461870463583963
20
91.045782931363803
10
47.461870463583963
20
90.025782931363807
10
47.183996447835931
20
90.025782931363807
10
47.183996447835931
20
90.160782931363798
10
43.411496447835944
20
90.160782931363798
10
43.411496447835944
20
90.025782931363807
0
LWPOLYLINE
5
131
100
AcDbEntity
8
0
100
AcDbPolyline
90
12
70
1
43
0.0
10
51.758622432087904
20
90.025782931363807
10
51.758622432087904
20
91.045782931363803
10
52.036496447835937
20
91.045782931363803
10
52.036496447835937
20
90.910782931363812
10
55.808996447835931
20
90.910782931363812
10
55.808996447835931
20
91.046382931363794
10
56.086870463583971
20
91.046382931363794
10
56.086870463583971
20
90.025782931363807
10
55.808996447835931
20
90.025782931363807
10
55.808996447835931
20
90.160782931363798
10
52.036496447835937
20
90.160782931363798
10
52.036496447835937
20
90.025782931363807
0
LWPOLYLINE
5
132
100
AcDbEntity
8
0
100
AcDbPolyline
90
20
70
1
43
0.0
10
55.735246447835941
20
82.780815918577318
10
55.870246447835932
20
82.780815918577318
10
55.870246447835932
20
82.502941902829292
10
54.850246447835929
20
82.502941902829292
10
54.850246447835929
20
82.780815918577318
10
54.985246447835941
20
82.780815918577318
10
54.985246447835941
20
87.740815918577297
10
54.850246447835929
20
87.740815918577297
10
54.850246447835929
20
88.018689934325351
10
55.870246447835932
20
88.018689934325351
10
55.870246447835932
20
87.740815918577297
10
55.735246447835941
20
87.740815918577297
10
55.735246447835941
20
85.515474353599103
10
56.215246447835938
20
85.515474353599103
10
56.215246447835938
20
85.650474353599094
10
56.485246447835941
20
85.650474353599094
10
56.485246447835941
20
83.364726322103024
10
56.215246447835938
20
83.364726322103024
10
56.215246447835938
20
83.499726322103029
10
55.735246447835941
20
83.499726322103029
0
LWPOLYLINE
5
133
100
AcDbEntity
8
0
100
AcDbPolyline
90
12
70
1
43
0.0
10
51.758622432087904
20
71.275782931363807
10
51.758622432087904
20
72.295782931363803
10
52.036496447835937
20
72.295782931363803
10
52.036496447835937
20
72.160782931363812
10
55.808996447835931
20
72.160782931363812
10
55.808996447835931
20
72.295782931363803
10
56.086870463583971
20
72.295782931363803
10
56.086870463583971
20
71.275182931363815
10
55.808996447835931
20
71.275182931363815
10
55.808996447835931
20
71.410782931363798
10
52.036496447835937
20
71.410782931363798
10
52.036496447835937
20
71.275782931363807
0
LWPOLYLINE
5
134
100
AcDbEntity
8
0
100
AcDbPolyline
90
12
70
1
43
0.0
10
47.461870463583971
20
72.295782931363803
10
47.461870463583971
20
71.275782931363807
10
47.183996447835931
20
71.275782931363807
10
47.183996447835931
20
71.410782931363798
10
43.411496447835944
20
71.410782931363784
10
43.411496447835944
20
71.275782931363779
10
43.133622432087918
20
71.275782931363807
10
43.133622432087918
20
72.295782931363803
10
43.411496447835944
20
72.295782931363789
10
43.411496447835944
20
72.160782931363784
10
47.183996447835931
20
72.160782931363812
10
47.183996447835931
20
72.295782931363803
0
LWPOLYLINE
5
135
100
AcDbEntity
8
0
100
AcDbPolyline
90
12
70
1
43
0.0
10
41.870246447835932
20
74.152908915615754
10
40.850246447835929
20
74.152908915615754
10
40.850246447835943
20
74.430782931363794
10
40.985246447835941
20
74.430782931363794
10
40.985246447835941
20
76.890782931363802
10
40.850246447835929
20
76.890782931363802
10
40.850246447835929
20
77.168656947111828
10
41.870246447835932
20
77.168656947111828
10
41.870246447835932
20
76.890782931363802
10
41.735246447835941
20
76.890782931363802
10
41.735246447835941
20
74.430782931363794
10
41.870246447835946
20
74.430782931363794
0
CIRCLE
5
136
100
AcDbEntity
8
0
100
AcDbCircle
10
53.571032885462849
20
73.574996493736919
30
0
40
0.13500000000000006
210
-0
220
0
230
1
0
LWPOLYLINE
5
137
100
AcDbEntity
8
0
100
AcDbPolyline
90
11
70
1
43
0.0
10
52.771454550229222
20
83.159207266605364
42
0.41421356237310814
10
51.771454550229222
20
84.159207266605364
10
50.771454550229215
20
84.159207266605364
42
0.41421356237309825
10
49.771454550229208
20
83.159207266605378
10
49.771454550229215
20
79.024207266605373
10
49.501454550229219
20
79.024207266605373
10
49.501454550229219
20
79.159207266605364
10
47.771454550229222
20
79.159207266605364
10
47.771454550229222
20
77.159207266605378
42
0.4142135623730967
10
48.771454550229222
20
76.159207266605378
10
52.771454550229208
20
76.159207266605364
0
LWPOLYLINE
5
138
100
AcDbEntity
8
0
100
AcDbPolyline
90
11
70
1
43
0.0
10
45.683242792846066
20
77.431739424176371
42
0.4142135623730967
10
46.683242792846066
20
78.431739424176357
10
46.683242792846066
20
82.566739424176362
10
46.953242792846069
20
82.566739424176362
10
46.953242792846069
20
82.431739424176371
10
48.683242792846066
20
82.431739424176371
10
48.683242792846066
20
84.431739424176371
42
0.4142135623730967
10
47.683242792846066
20
85.431739424176357
10
43.683242792846066
20
85.431739424176371
10
43.683242792846066
20
78.431739424176357
42
0.4142135623730967
10
44.683242792846066
20
77.431739424176371
0
LWPOLYLINE
5
139
100
AcDbEntity
8
0
100
AcDbPolyline
90
64
70
1
43
0.0
10
62.731100550254801
20
87.625318050473822
10
62.534250156554009
20
87.428467656773037
10
62.534250156554009
20
86.735318050473808
10
62.26425015655402
20
86.735318050473808
10
62.26425015655402
20
86.875318050473822
10
60.784250156554016
20
86.875318050473822
10
60.784250156554016
20
84.989068050473819
10
60.92425015655401
20
84.989068050473819
10
60.92425015655401
20
84.719068050473808
10
59.784250156554009
20
84.719068050473808
42
0.41421356237308632
10
59.034250156554002
20
83.969068050473808
10
59.034250156554016
20
81.156568050473822
42
0.41421356237308632
10
59.784250156554009
20
80.406568050473822
10
60.92425015655401
20
80.406568050473808
10
60.92425015655401
20
80.136568050473826
10
60.784250156554016
20
80.136568050473826
10
60.784250156554016
20
76.364068050473819
10
60.924250156554017
20
76.364068050473819
10
60.924250156554017
20
76.094068050473822
10
59.784250156554016
20
76.094068050473822
42
0.41421356237308632
10
59.034250156554016
20
75.344068050473822
10
59.034250156554016
20
72.531568050473808
42
0.41421356237308632
10
59.784250156554009
20
71.781568050473808
10
60.92425015655401
20
71.781568050473822
10
60.92425015655401
20
71.511568050473812
10
60.784250156554016
20
71.511568050473812
10
60.784250156554016
20
69.625318050473822
10
74.784250156554009
20
69.625318050473822
10
74.784250156554009
20
71.511568050473826
10
74.644250156553994
20
71.511568050473826
10
74.644250156553994
20
71.781568050473822
10
75.784250156554009
20
71.781568050473808
42
0.41421356237308632
10
76.534250156554009
20
72.531568050473808
10
76.534250156554009
20
75.344068050473808
42
0.41421356237308632
10
75.784250156554009
20
76.094068050473808
10
74.644250156554008
20
76.094068050473822
10
74.644250156554008
20
76.364068050473819
10
74.784250156554009
20
76.364068050473819
10
74.784250156554009
20
80.136568050473826
10
74.644250156554023
20
80.136568050473826
10
74.644250156554023
20
80.406568050473822
10
75.784250156554009
20
80.406568050473808
42
0.41421356237308632
10
76.534250156554009
20
81.156568050473808
10
76.534250156554009
20
83.969068050473808
42
0.41421356237308632
10
75.784250156554009
20
84.719068050473808
10
74.644250156554023
20
84.719068050473808
10
74.644250156554023
20
84.989068050473833
10
74.784250156554009
20
84.989068050473833
10
74.784250156554009
20
86.875318050473822
10
73.304250156554005
20
86.875318050473822
10
73.304250156554005
20
86.735318050473822
10
73.034250156554009
20
86.735318050473822
10
73.034250156554009
20
87.428467656773037
10
72.837399762853224
20
87.625318050473822
10
69.731100550254794
20
87.625318050473822
10
69.534250156554009
20
87.428467656773037
10
69.534250156554009
20
86.735318050473808
10
69.264250156554013
20
86.735318050473808
10
69.264250156554013
20
86.875318050473822
10
66.304250156554019
20
86.875318050473822
10
66.304250156554019
20
86.735318050473808
10
66.034250156554009
20
86.735318050473808
10
66.034250156554009
20
87.428467656773037
10
65.837399762853224
20
87.625318050473822
0
LWPOLYLINE
5
140
100
AcDbEntity
8
0
100
AcDbPolyline
90
8
70
1
43
0.0
10
62.284250156554023
20
75.708651383807151
42
0.41421356237309509
10
63.284250156554023
20
74.708651383807151
10
72.284250156554009
20
74.708651383807151
42
0.41421356237309509
10
73.284250156554009
20
75.708651383807151
10
73.284250156554009
20
84.375318050473837
42
0.41421356237309509
10
72.284250156554009
20
85.375318050473822
10
63.284250156554023
20
85.375318050473822
42
0.41421356237309509
10
62.284250156554016
20
84.375318050473822
0
LWPOLYLINE
5
141
100
AcDbEntity
8
0
100
AcDbPolyline
90
12
70
1
43
0.0
10
73.042124172302053
20
73.015318050473823
10
73.042124172302053
20
71.985318050473808
10
72.764250156553999
20
71.985318050473808
10
72.764250156553999
20
72.125318050473822
10
69.804250156554005
20
72.125318050473822
10
69.804250156554005
20
71.985318050473808
10
69.526376140805979
20
71.985318050473808
10
69.526376140805979
20
73.015318050473823
10
69.804250156554005
20
73.015318050473823
10
69.804250156554005
20
72.875318050473822
10
72.764250156554013
20
72.875318050473822
10
72.764250156554013
20
73.015318050473823
0
LWPOLYLINE
5
142
100
AcDbEntity
8
0
100
AcDbPolyline
90
12
70
1
43
0.0
10
66.042124172302039
20
73.015318050473809
10
66.042124172302039
20
71.985318050473808
10
65.764250156554013
20
71.985318050473808
10
65.764250156554013
20
72.125318050473822
10
62.804250156554012
20
72.125318050473822
10
62.804250156554012
20
71.985318050473808
10
62.526376140805972
20
71.985318050473808
10
62.526376140805972
20
73.015318050473809
10
62.804250156554019
20
73.015318050473809
10
62.804250156554019
20
72.875318050473822
10
65.764250156554013
20
72.875318050473822
10
65.764250156554013
20
73.015318050473809
0
LWPOLYLINE
5
143
100
AcDbEntity
8
0
100
AcDbPolyline
90
11
70
1
43
0.0
10
64.407127434138886
20
83.917289758833206
42
0.41421356237310814
10
63.407127434138893
20
82.917289758833206
10
63.407127434138893
20
75.917289758833206
10
67.407127434138886
20
75.917289758833221
42
0.41421356237310814
10
68.407127434138886
20
76.917289758833206
10
68.407127434138886
20
78.917289758833192
10
66.677127434138882
20
78.917289758833192
10
66.677127434138882
20
78.782289758833201
10
66.407127434138886
20
78.782289758833201
10
66.407127434138886
20
82.917289758833206
42
0.41421356237310814
10
65.407127434138886
20
83.917289758833206
0
LWPOLYLINE
5
144
100
AcDbEntity
8
0
100
AcDbPolyline
90
11
70
1
43
0.0
10
71.344367185359573
20
75.919060425741918
42
0.41421356237310814
10
72.344367185359573
20
76.919060425741918
10
72.344367185359573
20
83.919060425741918
10
68.344367185359587
20
83.919060425741918
42
0.41421356237310814
10
67.344367185359587
20
82.919060425741918
10
67.344367185359573
20
80.919060425741918
10
69.074367185359577
20
80.919060425741918
10
69.074367185359577
20
81.054060425741909
10
69.344367185359573
20
81.054060425741909
10
69.344367185359573
20
76.919060425741918
42
0.41421356237310814
10
70.344367185359573
20
75.919060425741918
0
LWPOLYLINE
5
145
100
AcDbEntity
8
0
100
AcDbPolyline
90
18
70
1
43
0.0
10
60.490772729932431
20
89.82450889152959
10
68.507107839451805
20
88.411012725320745
42
0.41421356237310286
10
69.375949787461167
20
89.01938240682972
10
69.46221549656137
20
89.508619554506183
42
0.41421356237309509
10
68.853845815052409
20
90.37746150251553
10
61.713989605713913
20
91.636410790600792
10
61.714547985447162
20
91.639577519430432
10
60.838069085266277
20
91.794124397554
10
60.88495409323636
20
92.060022490867297
10
61.022827178658062
20
92.035711745993922
10
61.149031968621678
20
92.751454676863176
10
60.656628092115589
20
92.838278765696643
42
0.41421356237309148
10
59.787786144106242
20
92.22990908418771
10
59.093193433438522
20
88.29067807213886
42
0.41421356237309348
10
59.70156311494749
20
87.421836124129499
10
60.193966991453586
20
87.335012035296046
10
60.581760807384079
20
89.534300053342918
10
60.443887721962369
20
89.558610798216279
0
CIRCLE
5
146
100
AcDbEntity
8
0
100
AcDbCircle
10
67.445232167187058
20
89.612044075263682
30
0
40
0.13499999999999937
210
-0
220
0
230
1
0
LWPOLYLINE
5
147
100
AcDbEntity
8
0
100
AcDbPolyline
90
28
70
1
43
0.0
10
75.210237375626335
20
90.26229368758851
10
75.071043127361307
20
90.503385197704986
10
73.519477233164665
20
90.91912602605862
10
73.278385723048217
20
90.779931777793536
10
73.100279499058189
20
90.115230300718494
10
72.839479525960101
20
90.185111442896158
10
72.874420097048969
20
90.315511429445209
10
71.927812787285674
20
90.569154093645665
10
71.798403264734418
20
90.086191180501132
42
0.41421356237309587
10
72.505510045920943
20
88.861446309109553
10
74.638962156880567
20
88.289789538887462
42
-0.29821662669859217
10
75.733953480693032
20
87.064638935583758
42
0.29821662669861604
10
76.463947696567971
20
86.247871866714618
10
76.946910609712518
20
86.118462344163362
10
77.071143751361717
20
86.582106740782109
10
76.940743764812694
20
86.617047311870948
10
77.010624906990387
20
86.877847284968965
10
77.675307981028467
20
86.699745992057871
10
77.916399491144929
20
86.838940240322898
10
78.20273079694735
20
87.907543221374993
10
78.063536548682251
20
88.148634731491455
10
77.39885347464417
20
88.326736024402592
10
77.46873461682182
20
88.587535997500652
10
77.599134603370885
20
88.552595426411798
10
77.723367745020113
20
89.01623982303056
10
75.32787169582322
20
89.658111054884799
10
75.292931124734366
20
89.527711068335776
10
75.032131151636321
20
89.59759221051344
0
CIRCLE
5
148
100
AcDbEntity
8
0
100
AcDbCircle
10
77.892095338751432
20
91.446187413413597
30
0
40
0.13500000000000148
210
0
220
-0
230
1
0
LWPOLYLINE
5
149
100
AcDbEntity
8
0
100
AcDbPolyline
90
18
70
1
43
0.0
10
76.487716659685873
20
90.680023246899879
10
84.504051769205248
20
89.266527080691063
10
84.457166761235186
20
89.00062898737778
10
84.319293675813455
20
89.024939732251156
10
83.931499859882976
20
86.825651714204284
10
84.423903736389079
20
86.738827625370817
42
0.41421356237310364
10
85.292745684398426
20
87.347197306879778
10
85.987338395066132
20
91.286428318928614
42
0.41421356237310442
10
85.3789687135572
20
92.155270266937976
10
84.886564837051068
20
92.242094355771442
10
84.76036004708746
20
91.52635142490216
10
84.898233132509191
20
91.502040680028784
10
84.851348124539115
20
91.236142586715502
10
83.974869224358244
20
91.390689464839056
10
83.974310844624981
20
91.387522736009416
10
76.834454635286463
20
92.646472024094649
42
0.4142135623730942
10
75.96561268727713
20
92.038102342585688
10
75.879346978176912
20
91.54886519490924
42
0.41421356237310442
0
LWPOLYLINE
5
150
100
AcDbEntity
8
0
100
AcDbPolyline
90
29
70
1
43
0.0
10
86.21454506965955
20
78.293399707702918
10
86.017694675958765
20
78.490250101403703
10
85.329545069659559
20
78.490250101403703
10
85.329545069659559
20
78.760250101403699
10
85.46454506965955
20
78.760250101403699
10
85.46454506965955
20
85.115250101403689
10
83.247369749084797
20
85.115250101403689
10
83.247369749084797
20
84.980250101403698
10
82.977369749084801
20
84.980250101403698
10
82.977369749084801
20
85.668399707702903
10
82.780519355384016
20
85.865250101403689
10
80.174220142785586
20
85.865250101403689
10
79.977369749084801
20
85.668399707702903
10
79.977369749084801
20
84.980250101403698
10
79.707369749084791
20
84.980250101403698
10
79.707369749084791
20
85.115250101403689
10
77.490194428510037
20
85.115250101403689
10
77.490194428510037
20
83.615250101403689
42
0.41421356237308632
10
78.990194428510037
20
82.115250101403689
10
79.464545069659565
20
82.115250101403689
42
-0.41421356237309509
10
82.464545069659565
20
79.115250101403689
10
82.46454506965955
20
75.990250101403703
42
0.41421356237308632
10
83.96454506965955
20
74.490250101403703
10
85.46454506965955
20
74.490250101403703
10
85.46454506965955
20
75.220250101403693
10
85.329545069659559
20
75.220250101403693
10
85.329545069659559
20
75.490250101403703
10
86.017694675958765
20
75.490250101403703
10
86.21454506965955
20
75.687100495104488
0
LINE
5
151
100
AcDbEntity
8
0
100
AcDbLine
10
80.534565164401926
20
69.45678003082223
30
0
11
80.33771477070114
21
69.653630424523016
31
0
0
LWPOLYLINE
5
152
100
AcDbEntity
8
0
100
AcDbPolyline
90
29
70
1
43
0.0
10
77.100539450126377
20
77.028630424523001
10
77.297389843827162
20
76.831780030822216
10
77.985539450126367
20
76.831780030822216
10
77.985539450126367
20
76.56178003082222
10
77.850539450126377
20
76.56178003082222
10
77.850539450126377
20
70.20678003082223
10
80.06771477070113
20
70.20678003082223
10
80.06771477070113
20
70.341780030822235
10
80.33771477070114
20
70.341780030822235
10
80.33771477070114
20
69.653630424523016
10
80.534565164401926
20
69.45678003082223
10
83.140864377000355
20
69.45678003082223
10
83.33771477070114
20
69.653630424523016
10
83.33771477070114
20
70.341780030822235
10
83.607714770701122
20
70.341780030822235
10
83.607714770701122
20
70.20678003082223
10
85.82489009127589
20
70.20678003082223
10
85.82489009127589
20
71.70678003082223
42
0.41421356237308632
10
84.32489009127589
20
73.20678003082223
10
83.850539450126362
20
73.20678003082223
42
-0.41421356237309509
10
80.850539450126362
20
76.20678003082223
10
80.850539450126377
20
79.33178003082223
42
0.4142135623730841
10
79.350539450126362
20
80.831780030822216
10
77.850539450126362
20
80.831780030822216
10
77.850539450126362
20
80.101780030822226
10
77.985539450126367
20
80.101780030822226
10
77.985539450126367
20
79.831780030822216
10
77.297389843827162
20
79.831780030822216
10
77.100539450126362
20
79.634929637121431
0
ENDSEC
0
SECTION
2
OBJECTS
0
DICTIONARY
5
C
100
AcDbDictionary
3
ACAD_GROUP
350
D
3
ACAD_MLINESTYLE
350
17
0
DICTIONARY
5
D
100
AcDbDictionary
0
DICTIONARY
5
1A
330
C
100
AcDbDictionary
0
DICTIONARY
5
17
100
AcDbDictionary
0
ENDSEC
0
EOF
