0
SECTION
2
HEADER
9
$INSUNITS
70
1
9
$ACADVER
1
AC1014
9
$HANDSEED
5
FFFF
0
ENDSEC
0
SECTION
2
TABLES
0
TABLE
2
VPORT
5
8
100
AcDbSymbolTable
0
ENDTAB
0
TABLE
2
LTYPE
5
5
100
AcDbSymbolTable
0
LTYPE
5
14
100
AcDbSymbolTableRecord
100
AcDbLinetypeTableRecord
2
BYBLOCK
70
0
0
LTYPE
5
15
100
AcDbSymbolTableRecord
100
AcDbLinetypeTableRecord
2
BYLAYER
70
0
0
LTYPE
5
16
100
AcDbSymbolTableRecord
100
AcDbLinetypeTableRecord
2
DASHED
70
0
3
Dashed __ __ __ __ __ __ __ __ __ __ __ __ __ _
72
65
73
2
40
0.75
49
0.5
74
0
49
-0.25
74
0
0
ENDTAB
0
TABLE
2
LAYER
5
2
100
AcDbSymbolTable
70
2
0
LAYER
5
50
100
AcDbSymbolTableRecord
100
AcDbLayerTableRecord
2
0
70
0
62
7
6
CONTINUOUS
0
ENDTAB
0
TABLE
2
STYLE
5
3
100
AcDbSymbolTable
70
1
0
STYLE
5
11
100
AcDbSymbolTableRecord
100
AcDbTextStyleTableRecord
2
STANDARD
70
0
0
ENDTAB
0
TABLE
2
VIEW
5
6
100
AcDbSymbolTable
70
0
0
ENDTAB
0
TABLE
2
UCS
5
7
100
AcDbSymbolTable
70
0
0
ENDTAB
0
TABLE
2
APPID
5
9
100
AcDbSymbolTable
70
2
0
APPID
5
12
100
AcDbSymbolTableRecord
100
AcDbRegAppTableRecord
2
ACAD
70
0
0
ENDTAB
0
TABLE
2
DIMSTYLE
5
A
100
AcDbSymbolTable
70
1
0
ENDTAB
0
TABLE
2
BLOCK_RECORD
5
1
100
AcDbSymbolTable
70
1
0
BLOCK_RECORD
5
1F
100
AcDbSymbolTableRecord
100
AcDbBlockTableRecord
2
*MODEL_SPACE
0
BLOCK_RECORD
5
1B
100
AcDbSymbolTableRecord
100
AcDbBlockTableRecord
2
*PAPER_SPACE
0
ENDTAB
0
ENDSEC
0
SECTION
2
BLOCKS
0
BLOCK
5
20
100
AcDbEntity
100
AcDbBlockBegin
2
*MODEL_SPACE
0
ENDBLK
5
21
100
AcDbEntity
100
AcDbBlockEnd
0
BLOCK
5
1C
100
AcDbEntity
100
AcDbBlockBegin
2
*PAPER_SPACE
0
ENDBLK
5
1D
100
AcDbEntity
100
AcDbBlockEnd
0
ENDSEC
0
SECTION
2
ENTITIES
0
CIRCLE
5
100
100
AcDbEntity
8
0
100
AcDbCircle
10
33.389567624045149
20
19.390911765679014
30
0
40
0.082000000000000087
210
-0
220
0
230
1
0
CIRCLE
5
101
100
AcDbEntity
8
0
100
AcDbCircle
10
32.676421273426854
20
19.390911765679014
30
0
40
0.082000000000000087
210
-0
220
0
230
1
0
CIRCLE
5
102
100
AcDbEntity
8
0
100
AcDbCircle
10
34.815163272506531
20
23.13477688844883
30
0
40
0.082000000000000003
210
-0
220
0
230
1
0
CIRCLE
5
103
100
AcDbEntity
8
0
100
AcDbCircle
10
32.940163272506538
20
23.134776888448826
30
0
40
0.082000000000000003
210
-0
220
0
230
1
0
LWPOLYLINE
5
104
100
AcDbEntity
8
0
100
AcDbPolyline
90
24
70
1
43
0.0
10
32.002663272506531
20
18.892880269616029
10
32.002663272506531
20
4.8377621593797997
10
32.408175083530153
20
4.8377621593798006
10
32.408175083530161
20
3.8416991672538154
10
32.002663272506538
20
3.8416991672538154
10
32.002663272506538
20
1.3686611515373059
10
32.120773508727012
20
1.3686611515373059
10
32.120773508727012
20
0.394848773553025
10
32.31762390242779
20
0.1979983798522319
10
35.437702642585279
20
0.1979983798522319
10
35.634553036286064
20
0.39484877355301928
10
35.634553036286064
20
1.3686611515373059
10
35.752663272506538
20
1.3686611515373059
10
35.752663272506531
20
22.638943261742007
10
35.634553036286064
20
22.638943261742007
10
35.634553036286064
20
23.62319523024594
10
35.437702642585279
20
23.820045623946729
10
32.31762390242779
20
23.820045623946729
10
32.120773508727005
20
23.623195230245948
10
32.120773508727005
20
22.638943261742003
10
32.002663272506524
20
22.638943261742003
10
32.002663272506531
20
19.888943261742003
10
32.408175083530153
20
19.888943261742003
10
32.408175083530153
20
18.892880269616018
0
CIRCLE
5
105
100
AcDbEntity
8
0
100
AcDbCircle
10
33.389567624045142
20
4.3397306633168027
30
0
40
0.082000000000000794
210
-0
220
0
230
1
0
CIRCLE
5
106
100
AcDbEntity
8
0
100
AcDbCircle
10
32.676421273426847
20
4.3397306633168027
30
0
40
0.082000000000000794
210
-0
220
0
230
1
0
CIRCLE
5
107
100
AcDbEntity
8
0
100
AcDbCircle
10
34.815163272506538
20
0.80232908851364793
30
0
40
0.081023622047244087
210
0
220
-0
230
1
0
CIRCLE
5
108
100
AcDbEntity
8
0
100
AcDbCircle
10
32.940163272506538
20
0.80232908851364793
30
0
40
0.081023622047244087
210
0
220
-0
230
1
0
CIRCLE
5
109
100
AcDbEntity
8
0
100
AcDbCircle
10
29.215300794830302
20
19.678313340482145
30
0
40
0.082000000000000794
210
0
220
-0
230
1
0
CIRCLE
5
110
100
AcDbEntity
8
0
100
AcDbCircle
10
28.502154444212003
20
19.678313340482145
30
0
40
0.082000000000000794
210
0
220
-0
230
1
0
CIRCLE
5
111
100
AcDbEntity
8
0
100
AcDbCircle
10
30.640896443291684
20
23.215714915285297
30
0
40
0.081023622047244087
210
-0
220
0
230
1
0
CIRCLE
5
112
100
AcDbEntity
8
0
100
AcDbCircle
10
28.765896443291684
20
23.215714915285297
30
0
40
0.081023622047244087
210
-0
220
0
230
1
0
CIRCLE
5
113
100
AcDbEntity
8
0
100
AcDbCircle
10
28.765896443291684
20
0.88326711535012814
30
0
40
0.082000000000000003
210
0
220
-0
230
1
0
CIRCLE
5
114
100
AcDbEntity
8
0
100
AcDbCircle
10
30.640896443291684
20
0.88326711535012814
30
0
40
0.082000000000000003
210
0
220
-0
230
1
0
CIRCLE
5
115
100
AcDbEntity
8
0
100
AcDbCircle
10
28.502154444211996
20
4.6271322381199482
30
0
40
0.082000000000000087
210
0
220
-0
230
1
0
CIRCLE
5
116
100
AcDbEntity
8
0
100
AcDbCircle
10
29.215300794830295
20
4.6271322381199482
30
0
40
0.082000000000000087
210
0
220
-0
230
1
0
LWPOLYLINE
5
117
100
AcDbEntity
8
0
100
AcDbPolyline
90
24
70
1
43
0.0
10
27.828396443291684
20
19.180281844419152
10
27.828396443291673
20
5.125163734182939
10
28.233908254315295
20
5.1251637341829399
10
28.233908254315303
20
4.1291007420569557
10
27.828396443291684
20
4.1291007420569557
10
27.82839644329168
20
1.3791007420569563
10
27.946506679512158
20
1.3791007420569563
10
27.946506679512158
20
0.39484877355301939
10
28.143357073212943
20
0.1979983798522319
10
31.263435813370421
20
0.1979983798522319
10
31.46028620707121
20
0.39484877355301928
10
31.46028620707121
20
1.3791007420569563
10
31.57839644329168
20
1.3791007420569563
10
31.57839644329168
20
22.649382852261642
10
31.46028620707121
20
22.649382852261642
10
31.46028620707121
20
23.62319523024593
10
31.263435813370421
20
23.820045623946719
10
28.143357073212943
20
23.820045623946719
10
27.946506679512158
20
23.623195230245926
10
27.946506679512158
20
22.649382852261642
10
27.82839644329168
20
22.649382852261642
10
27.828396443291684
20
20.17634483654513
10
28.233908254315303
20
20.176344836545137
10
28.233908254315303
20
19.180281844419152
0
CIRCLE
5
118
100
AcDbEntity
8
0
100
AcDbCircle
10
25.030933180360854
20
19.390911765679085
30
0
40
0.082000000000000087
210
0
220
-0
230
1
0
CIRCLE
5
119
100
AcDbEntity
8
0
100
AcDbCircle
10
24.317786829742555
20
19.390911765679085
30
0
40
0.082000000000000087
210
0
220
-0
230
1
0
CIRCLE
5
120
100
AcDbEntity
8
0
100
AcDbCircle
10
26.456528828822243
20
23.134776888448901
30
0
40
0.082000000000000003
210
0
220
-0
230
1
0
CIRCLE
5
121
100
AcDbEntity
8
0
100
AcDbCircle
10
24.581528828822236
20
23.134776888448904
30
0
40
0.082000000000000003
210
0
220
-0
230
1
0
CIRCLE
5
122
100
AcDbEntity
8
0
100
AcDbCircle
10
24.581528828822236
20
0.80232908851373363
30
0
40
0.081023622047244087
210
-0
220
0
230
1
0
CIRCLE
5
123
100
AcDbEntity
8
0
100
AcDbCircle
10
26.456528828822229
20
0.80232908851374474
30
0
40
0.081023622047244087
210
-0
220
0
230
1
0
CIRCLE
5
124
100
AcDbEntity
8
0
100
AcDbCircle
10
24.317786829742548
20
4.3397306633168773
30
0
40
0.082000000000000794
210
0
220
-0
230
1
0
CIRCLE
5
125
100
AcDbEntity
8
0
100
AcDbCircle
10
25.030933180360844
20
4.3397306633168879
30
0
40
0.082000000000000794
210
0
220
-0
230
1
0
LWPOLYLINE
5
126
100
AcDbEntity
8
0
100
AcDbPolyline
90
24
70
1
43
0.0
10
23.644028828822236
20
18.892880269616096
10
23.644028828822233
20
4.8377621593798636
10
24.049540639845855
20
4.8377621593798636
10
24.049540639845855
20
3.8416991672538794
10
23.644028828822233
20
3.8416991672538794
10
23.644028828822233
20
1.3686611515373914
10
23.762139065042703
20
1.3686611515373914
10
23.762139065042703
20
0.39484877355310505
10
23.958989458743492
20
0.19799837985231766
10
27.079068198900973
20
0.19799837985232885
10
27.275918592601762
20
0.39484877355311626
10
27.275918592601762
20
1.3686611515374028
10
27.39402882882224
20
1.3686611515374028
10
27.39402882882224
20
22.638943261742074
10
27.275918592601762
20
22.638943261742074
10
27.275918592601762
20
23.623195230246015
10
27.079068198900973
20
23.8200456239468
10
23.958989458743496
20
23.8200456239468
10
23.76213906504271
20
23.623195230246015
10
23.76213906504271
20
22.638943261742078
10
23.644028828822236
20
22.638943261742078
10
23.644028828822236
20
19.888943261742078
10
24.049540639845858
20
19.888943261742078
10
24.049540639845858
20
18.892880269616093
0
CIRCLE
5
127
100
AcDbEntity
8
0
100
AcDbCircle
10
21.004636533433896
20
19.390911765679007
30
0
40
0.082000000000000087
210
0
220
0
230
1
0
CIRCLE
5
128
100
AcDbEntity
8
0
100
AcDbCircle
10
20.2914901828156
20
19.390911765679007
30
0
40
0.082000000000000087
210
0
220
0
230
1
0
CIRCLE
5
129
100
AcDbEntity
8
0
100
AcDbCircle
10
22.430232181895281
20
23.134776888448826
30
0
40
0.082000000000000003
210
0
220
0
230
1
0
CIRCLE
5
130
100
AcDbEntity
8
0
100
AcDbCircle
10
20.555232181895285
20
23.134776888448823
30
0
40
0.082000000000000003
210
0
220
0
230
1
0
CIRCLE
5
131
100
AcDbEntity
8
0
100
AcDbCircle
10
20.555232181895285
20
0.80232908851364793
30
0
40
0.081023622047244087
210
0
220
-0
230
1
0
CIRCLE
5
132
100
AcDbEntity
8
0
100
AcDbCircle
10
22.430232181895281
20
0.80232908851364793
30
0
40
0.081023622047244087
210
0
220
-0
230
1
0
CIRCLE
5
133
100
AcDbEntity
8
0
100
AcDbCircle
10
20.2914901828156
20
4.3397306633167965
30
0
40
0.082000000000000794
210
0
220
0
230
1
0
CIRCLE
5
134
100
AcDbEntity
8
0
100
AcDbCircle
10
21.004636533433896
20
4.3397306633167965
30
0
40
0.082000000000000794
210
0
220
0
230
1
0
LWPOLYLINE
5
135
100
AcDbEntity
8
0
100
AcDbPolyline
90
24
70
1
43
0.0
10
19.617732181895281
20
18.892880269616015
10
19.617732181895281
20
4.8377621593797882
10
20.023243992918903
20
4.837762159379789
10
20.023243992918903
20
3.8416991672538043
10
19.617732181895281
20
3.8416991672538101
10
19.617732181895281
20
1.3686611515373002
10
19.735842418115752
20
1.3686611515373002
10
19.735842418115752
20
0.39484877355301939
10
19.932692811816541
20
0.1979983798522319
10
23.052771551974025
20
0.1979983798522319
10
23.249621945674811
20
0.39484877355301928
10
23.249621945674807
20
1.3686611515373002
10
23.367732181895281
20
1.3686611515373002
10
23.367732181895278
20
22.638943261742
10
23.249621945674811
20
22.638943261742
10
23.249621945674811
20
23.623195230245937
10
23.052771551974025
20
23.820045623946726
10
19.932692811816541
20
23.820045623946719
10
19.735842418115752
20
23.62319523024593
10
19.735842418115752
20
22.638943261741993
10
19.617732181895281
20
22.638943261741993
10
19.617732181895281
20
19.888943261742
10
20.023243992918903
20
19.888943261742
10
20.023243992918903
20
18.892880269616015
0
LWPOLYLINE
5
136
100
AcDbEntity
8
0
100
AcDbPolyline
90
12
70
1
43
0.0
10
15.982863721360337
20
22.590481887930995
10
15.864753485139865
20
22.590481887930995
10
15.864753485139865
20
23.564294265915276
10
15.667903091439078
20
23.761144659616065
10
12.5478243512816
20
23.761144659616065
10
12.350973957580811
20
23.564294265915276
10
12.350973957580811
20
22.590481887931002
10
12.232863721360335
20
22.590481887931002
10
12.23286372136034
20
4.1351604076475645
42
0.41421356237309448
10
12.626564508761914
20
3.7414596202459909
10
15.589162933958768
20
3.74145962024599
42
0.41421356237309448
10
15.982863721360342
20
4.1351604076475645
0
CIRCLE
5
137
100
AcDbEntity
8
0
100
AcDbCircle
10
15.045363721360339
20
5.0406722186711859
30
0
40
0.088500000000002285
210
-0
220
0
230
1
0
CIRCLE
5
138
100
AcDbEntity
8
0
100
AcDbCircle
10
13.170363721360344
20
5.0406722186711859
30
0
40
0.088500000000002285
210
-0
220
0
230
1
0
LWPOLYLINE
5
139
100
AcDbEntity
8
0
100
AcDbPolyline
90
4
70
1
43
0.0
10
14.196363721360331
20
20.709963557253861
10
14.19636372136034
20
5.9461840352577333
42
-0.99999999999999989
10
14.019363721360342
20
5.9461840241318802
10
14.019363721360333
20
20.709963557253861
42
-0.99999999999999989
0
CIRCLE
5
140
100
AcDbEntity
8
0
100
AcDbCircle
10
13.170363721360339
20
23.15681395095465
30
0
40
0.081023622047244087
210
-0
220
0
230
1
0
CIRCLE
5
141
100
AcDbEntity
8
0
100
AcDbCircle
10
15.045363721360339
20
23.15681395095465
30
0
40
0.081023622047244087
210
-0
220
0
230
1
0
LWPOLYLINE
5
142
100
AcDbEntity
8
0
100
AcDbPolyline
90
12
70
1
43
0.0
10
11.735925953170625
20
3.7848034918966391
10
11.932776346871412
20
3.9816538855974266
10
11.932776346871412
20
4.9659058541013632
10
12.050886583091886
20
4.9659058541013632
10
12.050886583091886
20
23.410787743865143
42
0.41421356237309814
10
11.65718579569031
20
23.804488531266724
10
8.6945873704934602
20
23.804488531266724
42
0.41421356237308982
10
8.3008865830918914
20
23.41078774386515
10
8.3008865830918843
20
4.965905854101365
10
8.4189968193123548
20
4.965905854101365
10
8.4189968193123565
20
3.9816538855974279
10
8.6158472130131436
20
3.7848034918966409
0
CIRCLE
5
143
100
AcDbEntity
8
0
100
AcDbCircle
10
9.2383865830918879
20
4.470072227394537
30
0
40
0.082000000000000794
210
-0
220
0
230
1
0
CIRCLE
5
144
100
AcDbEntity
8
0
100
AcDbCircle
10
11.113386583091883
20
4.4700722273945352
30
0
40
0.082000000000000794
210
-0
220
0
230
1
0
CIRCLE
5
145
100
AcDbEntity
8
0
100
AcDbCircle
10
10.175886583091884
20
22.505275932841524
30
0
40
0.088500000000000176
210
0
220
-0
230
1
0
LWPOLYLINE
5
146
100
AcDbEntity
8
0
100
AcDbPolyline
90
4
70
1
43
0.0
10
9.3268865830918841
20
21.599764112280326
10
9.3268865830918894
20
6.8359845942588437
42
-0.99999999999999989
10
9.1498865830918845
20
6.8359845942588437
10
9.1498865830918827
20
21.599764131355489
42
-0.99999999999999989
0
LWPOLYLINE
5
147
100
AcDbEntity
8
0
100
AcDbPolyline
90
4
70
1
43
0.0
10
11.201886583091884
20
21.59976411401297
10
11.201886583091884
20
6.8359845942588437
42
-0.99999999999999989
10
11.024886583091881
20
6.8359845942588437
10
11.024886583091886
20
21.599764130941598
42
-0.9999999925494194
0
LWPOLYLINE
5
148
100
AcDbEntity
8
0
100
AcDbPolyline
90
12
70
1
43
0.0
10
8.0281016021122618
20
22.561616692755237
10
7.9099913658917851
20
22.561616692755237
10
7.9099913658917851
20
23.535429070739522
10
7.7131409721909971
20
23.732279464440307
10
4.593062232033513
20
23.732279464440307
10
4.3962118383327251
20
23.535429070739522
10
4.3962118383327251
20
22.561616692755237
10
4.27810160211226
20
22.561616692755237
10
4.2781016021122653
20
4.1062952124718048
42
0.41421356237309509
10
4.6718023895138403
20
3.7125944250702299
10
7.6344008147106921
20
3.7125944250702299
42
0.41421356237309448
10
8.0281016021122671
20
4.1062952124718048
0
CIRCLE
5
149
100
AcDbEntity
8
0
100
AcDbCircle
10
7.0906016021122635
20
5.0118070234954306
30
0
40
0.088500000000002285
210
-0
220
0
230
1
0
CIRCLE
5
150
100
AcDbEntity
8
0
100
AcDbCircle
10
5.2156016021122626
20
5.0118070234954306
30
0
40
0.088500000000002285
210
-0
220
0
230
1
0
LWPOLYLINE
5
151
100
AcDbEntity
8
0
100
AcDbPolyline
90
4
70
1
43
0.0
10
6.2416016021122598
20
20.681098362078103
10
6.241601602112266
20
5.9173188387632205
42
-0.9999999925494194
10
6.0646016021122664
20
5.9173188289561196
10
6.0646016021122495
20
20.681098362078103
42
-0.99999999999999989
0
CIRCLE
5
152
100
AcDbEntity
8
0
100
AcDbCircle
10
5.2156016021122573
20
23.127948755778892
30
0
40
0.081023622047244087
210
-0
220
0
230
1
0
CIRCLE
5
153
100
AcDbEntity
8
0
100
AcDbCircle
10
7.0906016021122529
20
23.127948755778892
30
0
40
0.081023622047244087
210
-0
220
0
230
1
0
LWPOLYLINE
5
154
100
AcDbEntity
8
0
100
AcDbPolyline
90
12
70
1
43
0.0
10
3.6927616967314187
20
3.7231149437918414
10
3.889612090432212
20
3.9199653374926289
10
3.889612090432212
20
4.9042173059965659
10
4.0077223266526829
20
4.9042173059965659
10
4.0077223266526776
20
23.349099195760346
42
0.41421356237309659
10
3.6140215392511026
20
23.742799983161923
10
0.65142311405425035
20
23.742799983161923
42
0.41421356237309592
10
0.25772232665267442
20
23.349099195760342
10
0.25772232665268119
20
4.9042173059965659
10
0.37583256287315253
20
4.9042173059965659
10
0.37583256287315253
20
3.9199653374926289
10
0.57268295657393986
20
3.7231149437918414
0
CIRCLE
5
155
100
AcDbEntity
8
0
100
AcDbCircle
10
1.1952223266526845
20
4.4083836792897371
30
0
40
0.082000000000000794
210
-0
220
0
230
1
0
CIRCLE
5
156
100
AcDbEntity
8
0
100
AcDbCircle
10
3.0702223266526798
20
4.4083836792897371
30
0
40
0.082000000000000794
210
-0
220
0
230
1
0
CIRCLE
5
157
100
AcDbEntity
8
0
100
AcDbCircle
10
2.1327223266526709
20
22.443587384736723
30
0
40
0.088500000000000176
210
0
220
-0
230
1
0
LWPOLYLINE
5
158
100
AcDbEntity
8
0
100
AcDbPolyline
90
4
70
1
43
0.0
10
1.2837223266526783
20
21.538075564175525
10
1.2837223266526812
20
6.7742960461540456
42
-0.99999999999999989
10
1.1067223266526767
20
6.7742960461540456
10
1.1067223266526711
20
21.538075583250681
42
-0.99999999999999989
0
LWPOLYLINE
5
159
100
AcDbEntity
8
0
100
AcDbPolyline
90
4
70
1
43
0.0
10
3.1587223266526738
20
21.538075565908166
10
3.1587223266526823
20
6.7742960461540456
42
-0.99999999999999989
10
2.9817223266526778
20
6.7742960461540456
10
2.9817223266526622
20
21.53807558151804
42
-0.99999999999999989
0
ENDSEC
0
SECTION
2
OBJECTS
0
DICTIONARY
5
C
100
AcDbDictionary
3
ACAD_GROUP
350
D
3
ACAD_MLINESTYLE
350
17
0
DICTIONARY
5
D
100
AcDbDictionary
0
DICTIONARY
5
1A
330
C
100
AcDbDictionary
0
DICTIONARY
5
17
100
AcDbDictionary
0
ENDSEC
0
EOF
